<?xml version="1.0" encoding="UTF-8"?>
<svg width="152mm" height="63mm" enable-background="new" version="1.1" viewBox="0 0 152 63" xmlns="http://www.w3.org/2000/svg" xmlns:osb="http://www.openswatchbook.org/uri/2009/osb" xmlns:xlink="http://www.w3.org/1999/xlink"><title>EduMoney</title><defs><linearGradient id="ray" osb:paint="solid"><stop stop-color="#fffbf0" stop-opacity=".58039" offset="0"/></linearGradient><linearGradient id="Lpaper" osb:paint="solid"><stop stop-color="#f3ead5" offset="0"/></linearGradient><pattern id="q" xlink:href="#x" patternTransform="matrix(.26458 0 0 .26458 83.939 277.25)"/><pattern id="r" xlink:href="#d" patternTransform="matrix(.26458 0 0 .26458 87.875 244.39)"/><pattern id="s" xlink:href="#d" patternTransform="matrix(.26458 0 0 .26458 87.875 244.39)"/><pattern id="t" xlink:href="#w" patternTransform="matrix(.26458 0 0 .26458 85.772 272.01)"/><pattern id="u" xlink:href="#v" patternTransform="matrix(.10801 .028059 -.093067 .35826 79.965 164.9)"/><linearGradient id="cpaper" osb:paint="solid"><stop stop-color="#ebddbc" offset="0"/></linearGradient><linearGradient id="gren" gradientTransform="matrix(.98504 0 0 1.0188 -7.237 -2.737)" osb:paint="solid"><stop stop-color="#00461c" offset="0"/></linearGradient><linearGradient id="gold" osb:paint="solid"><stop stop-color="#e6d738" offset="0"/></linearGradient><linearGradient id="paper" gradientTransform="matrix(.99976 0 0 1.0967 -3.0282 -40.52)" osb:paint="solid"><stop stop-color="#fcddbc" offset="0"/></linearGradient><linearGradient id="cm" x1="8.4308" x2="8.6964" y1="240.14" y2="240.14" gradientTransform="matrix(3.8762 0 0 .98769 -14.073 2.9561)" gradientUnits="userSpaceOnUse" xlink:href="#paper"/><linearGradient id="cl" x1="8.6997" x2="8.8589" y1="240.14" y2="240.14" gradientTransform="matrix(3.8762 0 0 .98769 -14.073 2.9561)" gradientUnits="userSpaceOnUse" xlink:href="#paper"/><linearGradient id="ck" x1="8.7622" x2="9.0536" y1="237.48" y2="237.48" gradientTransform="matrix(3.8762 0 0 .98769 -14.073 2.9561)" gradientUnits="userSpaceOnUse" xlink:href="#paper"/><linearGradient id="cj" x1="8.5834" x2="9.0535" y1="237.72" y2="237.72" gradientTransform="matrix(3.8762 0 0 .98769 -14.073 2.9561)" gradientUnits="userSpaceOnUse" xlink:href="#paper"/><linearGradient id="ci" x1="8.4117" x2="9.0535" y1="237.95" y2="237.95" gradientTransform="matrix(3.8762 0 0 .98769 -14.073 2.9561)" gradientUnits="userSpaceOnUse" xlink:href="#paper"/><linearGradient id="ch" x1="8.2471" x2="9.0534" y1="238.17" y2="238.17" gradientTransform="matrix(3.8762 0 0 .98769 -14.073 2.9561)" gradientUnits="userSpaceOnUse" xlink:href="#paper"/><linearGradient id="cg" x1="8.1144" x2="9.0533" y1="238.32" y2="238.32" gradientTransform="matrix(3.8762 0 0 .98769 -14.073 2.9561)" gradientUnits="userSpaceOnUse" xlink:href="#paper"/><linearGradient id="cf" x1="7.5925" x2="9.0414" y1="238.74" y2="238.74" gradientTransform="matrix(3.8762 0 0 .98769 -14.073 2.9561)" gradientUnits="userSpaceOnUse" xlink:href="#paper"/><linearGradient id="ce" x1="7.9032" x2="9.0529" y1="238.51" y2="238.51" gradientTransform="matrix(3.8762 0 0 .98769 -14.073 2.9561)" gradientUnits="userSpaceOnUse" xlink:href="#paper"/><linearGradient id="cd" x1="6.8881" x2="8.0237" y1="240.96" y2="240.96" gradientTransform="matrix(3.8762 0 0 .98769 -14.073 2.9561)" gradientUnits="userSpaceOnUse" xlink:href="#paper"/><linearGradient id="cc" x1="4.8722" x2="5.6126" y1="242.66" y2="242.66" gradientTransform="matrix(3.8762 0 0 .98769 -14.073 2.9561)" gradientUnits="userSpaceOnUse" xlink:href="#paper"/><linearGradient id="cb" x1="4.8652" x2="5.3597" y1="237.8" y2="237.8" gradientTransform="matrix(3.8762 0 0 .98769 -14.073 2.9561)" gradientUnits="userSpaceOnUse" xlink:href="#paper"/><linearGradient id="ca" x1="8.1168" x2="8.5835" y1="240.14" y2="240.14" gradientTransform="matrix(3.8762 0 0 .98769 -14.073 2.9561)" gradientUnits="userSpaceOnUse" xlink:href="#paper"/><linearGradient id="bz" x1="5.0044" x2="7.7769" y1="238.59" y2="238.59" gradientTransform="matrix(3.8762 0 0 .98769 -14.073 2.9561)" gradientUnits="userSpaceOnUse" xlink:href="#paper"/><linearGradient id="by" x1="4.8667" x2="7.2539" y1="239.11" y2="239.11" gradientTransform="matrix(3.8762 0 0 .98769 -14.073 2.9561)" gradientUnits="userSpaceOnUse" xlink:href="#paper"/><linearGradient id="bx" x1="4.89" x2="7.5538" y1="242.14" y2="242.14" gradientTransform="matrix(3.8762 0 0 .98769 -14.073 2.9561)" gradientUnits="userSpaceOnUse" xlink:href="#paper"/><linearGradient id="bw" x1="4.8702" x2="8.5024" y1="241.95" y2="241.95" gradientTransform="matrix(3.8762 0 0 .98769 -14.073 2.9561)" gradientUnits="userSpaceOnUse" xlink:href="#paper"/><linearGradient id="bv" x1="4.8846" x2="6.5361" y1="242.21" y2="242.21" gradientTransform="matrix(3.8762 0 0 .98769 -14.073 2.9561)" gradientUnits="userSpaceOnUse" xlink:href="#paper"/><linearGradient id="bu" x1="4.8666" x2="5.8139" y1="238.49" y2="238.49" gradientTransform="matrix(3.8762 0 0 .98769 -14.073 2.9561)" gradientUnits="userSpaceOnUse" xlink:href="#paper"/><linearGradient id="bt" x1="5.7178" x2="7.9685" y1="238.27" y2="238.27" gradientTransform="matrix(3.8762 0 0 .98769 -14.073 2.9561)" gradientUnits="userSpaceOnUse" xlink:href="#paper"/><linearGradient id="bs" x1="6.4849" x2="8.1652" y1="238.03" y2="238.03" gradientTransform="matrix(3.8762 0 0 .98769 -14.073 2.9561)" gradientUnits="userSpaceOnUse" xlink:href="#paper"/><linearGradient id="br" x1="7.1726" x2="8.372" y1="237.87" y2="237.87" gradientTransform="matrix(3.8762 0 0 .98769 -14.073 2.9561)" gradientUnits="userSpaceOnUse" xlink:href="#paper"/><linearGradient id="bq" x1="6.6872" x2="7.4886" y1="238.82" y2="238.82" gradientTransform="matrix(3.8762 0 0 .98769 -14.073 2.9561)" gradientUnits="userSpaceOnUse" xlink:href="#paper"/><linearGradient id="bp" x1="5.8213" x2="6.9157" y1="239.09" y2="239.09" gradientTransform="matrix(3.8762 0 0 .98769 -14.073 2.9561)" gradientUnits="userSpaceOnUse" xlink:href="#paper"/><linearGradient id="bo" x1="5.2301" x2="6.6249" y1="239.23" y2="239.23" gradientTransform="matrix(3.8762 0 0 .98769 -14.073 2.9561)" gradientUnits="userSpaceOnUse" xlink:href="#paper"/><linearGradient id="bn" x1="4.8703" x2="6.264" y1="239.09" y2="239.09" gradientTransform="matrix(3.8762 0 0 .98769 -14.073 2.9561)" gradientUnits="userSpaceOnUse" xlink:href="#paper"/><linearGradient id="bm" x1="7.3295" x2="8.2151" y1="240.78" y2="240.78" gradientTransform="matrix(3.8762 0 0 .98769 -14.073 2.9561)" gradientUnits="userSpaceOnUse" xlink:href="#paper"/><linearGradient id="bl" x1="7.7607" x2="8.3123" y1="240.73" y2="240.73" gradientTransform="matrix(3.8762 0 0 .98769 -14.073 2.9561)" gradientUnits="userSpaceOnUse" xlink:href="#paper"/><linearGradient id="bk" x1="4.8658" x2="9.0163" y1="240.71" y2="240.71" gradientTransform="matrix(3.8762 0 0 .98769 -14.073 2.9561)" gradientUnits="userSpaceOnUse" xlink:href="#paper"/><linearGradient id="bj" x1="5.0251" x2="9.0538" y1="241.37" y2="241.37" gradientTransform="matrix(3.8762 0 0 .98769 -14.073 2.9561)" gradientUnits="userSpaceOnUse" xlink:href="#paper"/><linearGradient id="bi" x1="5.7935" x2="9.0546" y1="241.1" y2="241.1" gradientTransform="matrix(3.8762 0 0 .98769 -14.073 2.9561)" gradientUnits="userSpaceOnUse" xlink:href="#paper"/><linearGradient id="bh" x1="6.3949" x2="9.0548" y1="240.9" y2="240.9" gradientTransform="matrix(3.8762 0 0 .98769 -14.073 2.9561)" gradientUnits="userSpaceOnUse" xlink:href="#paper"/><linearGradient id="i" x1="1553.8" x2="1639.2" y1="1270.3" y2="1270.3" gradientUnits="userSpaceOnUse" xlink:href="#paper"/><linearGradient id="h" x1="1625.3" x2="1737.5" y1="1271.3" y2="1271.3" gradientUnits="userSpaceOnUse" xlink:href="#paper"/><linearGradient id="bf" x1="34.689" x2="36.385" y1="209.28" y2="209.28" gradientTransform="translate(-23.625 42.953)" gradientUnits="userSpaceOnUse" xlink:href="#gold"/><linearGradient id="at" x1="77.655" x2="148.17" y1="262.47" y2="262.08" gradientUnits="userSpaceOnUse"><stop stop-color="#eee4c9" offset="0"/><stop stop-color="#fddebd" offset="1"/></linearGradient><linearGradient id="ah" x1="-.020719" x2="74.915" y1="265.5" y2="265.5" gradientTransform="matrix(1.0005 0 0 1 1.0767e-5 0)" gradientUnits="userSpaceOnUse"><stop stop-color="#fddebd" offset="0"/><stop stop-color="#eee4c9" offset="1"/></linearGradient><linearGradient id="cz" x1="70.258" x2="71.02" y1="339.29" y2="339.29" gradientTransform="matrix(3.7795 0 0 3.7795 -264.94 -1281.1)" gradientUnits="userSpaceOnUse" xlink:href="#paper"/><linearGradient id="cy" x1="75.926" x2="76.956" y1="306.89" y2="306.89" gradientTransform="matrix(3.7795 0 0 3.7795 -279.81 -1156.9)" gradientUnits="userSpaceOnUse" xlink:href="#paper"/><linearGradient id="cx" x1="74.989" x2="76.019" y1="307" y2="307" gradientTransform="matrix(3.7795 0 0 3.7795 -279.81 -1156.9)" gradientUnits="userSpaceOnUse" xlink:href="#paper"/><linearGradient id="cw" x1="74.035" x2="75.065" y1="306.29" y2="306.29" gradientTransform="matrix(3.7795 0 0 3.7795 -279.81 -1156.9)" gradientUnits="userSpaceOnUse" xlink:href="#paper"/><linearGradient id="cv" x1="74.989" x2="76.019" y1="306.18" y2="306.18" gradientTransform="matrix(3.7795 0 0 3.7795 -279.81 -1156.9)" gradientUnits="userSpaceOnUse" xlink:href="#paper"/><linearGradient id="cu" x1="75.926" x2="76.956" y1="306.41" y2="306.41" gradientTransform="matrix(3.7795 0 0 3.7795 -279.81 -1156.9)" gradientUnits="userSpaceOnUse" xlink:href="#paper"/><linearGradient id="ct" x1="74.989" x2="76.019" y1="306.59" y2="306.59" gradientTransform="matrix(3.7795 0 0 3.7795 -279.81 -1156.9)" gradientUnits="userSpaceOnUse" xlink:href="#paper"/><linearGradient id="cs" x1="74.035" x2="75.065" y1="306.78" y2="306.78" gradientTransform="matrix(3.7795 0 0 3.7795 -279.81 -1156.9)" gradientUnits="userSpaceOnUse" xlink:href="#paper"/><pattern id="d" width="11.041599" height="3.6458835" patternTransform="matrix(.26458 0 0 .26458 74.034 306.11)" patternUnits="userSpaceOnUse"><path d="m0 0h11.042v3.6459h-11.042v-3.6459" fill-rule="evenodd"/><path d="m7.1481 2.9144 1.1019 0.5856 2.7916-0.54161-1.0257-0.52399-2.8677 0.48" fill="url(#cy)" fill-rule="evenodd"/><path d="m3.6064 1.7685 1.1019 0.5856l2.7917-0.54157-1.0257-0.52403-2.8679 0.48" fill="url(#ct)" fill-rule="evenodd"/><path d="m7.1481 1.0811 1.1019 0.5856l2.7916-0.54161-1.0257-0.52399-2.8677 0.48" fill="url(#cu)" fill-rule="evenodd"/><path d="m3.6064 3.6427 3.8936 0.0026456-1.0257-0.52399-2.8679 0.52082" fill="url(#cx)" fill-rule="evenodd"/><path d="m0.0022677 2.477 1.1019 0.5856 2.7917-0.54176-1.0257-0.52384-2.8679 0.48" fill="url(#cs)" fill-rule="evenodd"/><path d="m3.6064 0.002948 1.1019 0.5596 2.7917-0.56254-3.8936 0.0026835" fill="url(#cv)" fill-rule="evenodd"/><path d="m0.0022677 0.64879 1.1019 0.5856 2.7917-0.54161-1.0257-0.52399-2.8679 0.48" fill="url(#cw)" fill-rule="evenodd"/></pattern><pattern id="x" width="4.0862665" height="2.4246803" patternTransform="matrix(.26458 0 0 .26458 70.098 338.97)" patternUnits="userSpaceOnUse"><path d="m0 0h4.0863v2.4247h-4.0863v-2.4247" fill-rule="evenodd"/><path d="m0.60307 1.0267 1.4031 0.85028 1.4771-0.60601-1.5139-0.72321-1.3663 0.47894" fill="url(#cz)" fill-rule="evenodd"/></pattern><linearGradient id="cr" x1="71.939" x2="72.376" y1="334.02" y2="334.02" gradientTransform="matrix(3.7795 0 0 3.7795 -271.87 -1261.3)" gradientUnits="userSpaceOnUse" xlink:href="#paper"/><pattern id="w" width="2.1148006" height="1.9252157" patternTransform="matrix(.26458 0 0 .26458 71.931 333.73)" patternUnits="userSpaceOnUse"><path d="m0 0h2.1148v1.9252h-2.1148v-1.9252" fill-rule="evenodd"/><path d="m0.031068 1.3024 0.46987 0.46428 1.1792-0.85066-0.47-0.47562-1.1791 0.862" fill="url(#cr)" fill-rule="evenodd"/></pattern><linearGradient id="au" x1="110.46" x2="112.58" y1="264.19" y2="264.19" gradientUnits="userSpaceOnUse" xlink:href="#gren"/><linearGradient id="ag" x1="33.561" x2="62.95" y1="341.4" y2="341.4" gradientTransform="translate(13.841 -61.719)" gradientUnits="userSpaceOnUse" xlink:href="#cpaper"/><linearGradient id="af" gradientTransform="matrix(.99891 0 0 1.4876 -2.9699 -157.8)" gradientUnits="userSpaceOnUse" xlink:href="#cpaper"/><linearGradient id="ae" x1="65.307" x2="76.407" y1="227.54" y2="227.54" gradientTransform="matrix(4.4137 0 0 2.9707 -288.35 -672.59)" gradientUnits="userSpaceOnUse" xlink:href="#cpaper"/><pattern id="v" width="49.043596" height="5.5153097" patternTransform="matrix(.26458 0 0 .26458 66.124 226.62)" patternUnits="userSpaceOnUse"><rect width="49.044" height="5.5153" fill="url(#ae)"/><path d="m0.5524 0.584c5.1794 2.342 5.7388 2.0097 8.6715 2.1684 10.14 0.54894 11.257-4.5736 19.375-0.56829" fill="none" stroke="#000" stroke-width=".37005"/><path d="m4.9066 4.1211c4.4703 2.494 19.338-2.3805 24.728-0.20372 7.2509 2.9284 14.295-3.2062 19.122 1.103" fill="none" stroke="#000" stroke-width=".37005"/><path d="m32.914 0.93043c8.2361 2.5111 9.3138-1.2381 15.741-0.042709" fill="none" stroke="#000" stroke-width=".37005"/></pattern><linearGradient id="av" x1="86.439" x2="94.896" y1="274.9" y2="274.9" gradientUnits="userSpaceOnUse"><stop stop-color="#ff3e23" offset="0"/></linearGradient><linearGradient id="as" x1="45.151" x2="51.737" y1="290.37" y2="290.37" gradientUnits="userSpaceOnUse"><stop stop-color="#000001" offset="0"/></linearGradient><linearGradient id="ar" x1="286.63" x2="341.25" y1="383.45" y2="383.45" gradientTransform="matrix(.084667 0 0 .084667 -68.918 209.32)" gradientUnits="userSpaceOnUse" xlink:href="#paper"/><linearGradient id="aq" gradientTransform="matrix(.084667 0 0 .084667 -68.918 209.34)" gradientUnits="userSpaceOnUse" xlink:href="#paper"/><linearGradient id="ap" x1="286.63" x2="341.25" y1="383.45" y2="383.45" gradientTransform="matrix(.084667 0 0 .084667 -68.918 209.33)" gradientUnits="userSpaceOnUse" xlink:href="#paper"/><linearGradient id="ao" gradientTransform="matrix(.99976 0 0 1.0967 -3.0282 -40.52)" gradientUnits="userSpaceOnUse" xlink:href="#cpaper"/><linearGradient id="an" x1="355.32" x2="481.24" y1="383.45" y2="383.45" gradientTransform="matrix(.35278 0 0 -.35278 -46.681 425.4)" gradientUnits="userSpaceOnUse" xlink:href="#paper"/><linearGradient id="am" x1="355.32" x2="481.24" y1="383.45" y2="383.45" gradientUnits="userSpaceOnUse" xlink:href="#paper"/><linearGradient id="al" x1="355.32" x2="481.24" y1="383.45" y2="383.45" gradientTransform="matrix(.35278 0 0 -.35278 -46.681 425.4)" gradientUnits="userSpaceOnUse" xlink:href="#paper"/><linearGradient id="ak" x1="355.32" x2="481.24" y1="383.45" y2="383.45" gradientTransform="matrix(.35278 0 0 -.35278 -46.681 425.41)" gradientUnits="userSpaceOnUse" xlink:href="#paper"/><linearGradient id="aj" x1="355.32" x2="481.24" y1="383.45" y2="383.45" gradientTransform="matrix(.35278 0 0 -.35278 -46.681 425.45)" gradientUnits="userSpaceOnUse" xlink:href="#paper"/><linearGradient id="ai" x1="355.32" x2="481.24" y1="383.45" y2="383.45" gradientTransform="matrix(.35278 0 0 -.35278 -46.681 425.4)" gradientUnits="userSpaceOnUse" xlink:href="#paper"/><linearGradient id="cq" x1=".95" x2="2.05" y1="1.5" y2="1.5" gradientUnits="userSpaceOnUse" xlink:href="#gren"/><linearGradient id="k" x1="1553.4" x2="1721.1" y1="1270.6" y2="1270.6" gradientUnits="userSpaceOnUse" xlink:href="#gold"/><linearGradient id="cp" x1="141.94" x2="142.35" y1="303.94" y2="303.94" gradientTransform="translate(-1.3463 -21.434)" gradientUnits="userSpaceOnUse" xlink:href="#paper"/><linearGradient id="co" x1="133.09" x2="148.98" y1="309.42" y2="309.42" gradientTransform="translate(-1.3463 -21.434)" gradientUnits="userSpaceOnUse" xlink:href="#paper"/><linearGradient id="cn" x1="132.13" x2="147.08" y1="287.85" y2="287.85" gradientUnits="userSpaceOnUse" xlink:href="#paper"/><linearGradient id="j" x1="1554" x2="1720.5" y1="1270.6" y2="1270.6" gradientUnits="userSpaceOnUse" xlink:href="#gren"/><linearGradient id="bg" x1="141.94" x2="142.35" y1="303.94" y2="303.94" gradientTransform="translate(-1.3463 -21.434)" gradientUnits="userSpaceOnUse" xlink:href="#gren"/><linearGradient id="be" x1="86.439" x2="94.896" y1="274.9" y2="274.9" gradientUnits="userSpaceOnUse"><stop stop-color="#e79599" offset="0"/></linearGradient><linearGradient id="bd" x1="3.1183" x2="20.55" y1="279.03" y2="279.03" gradientUnits="userSpaceOnUse" xlink:href="#ray"/><linearGradient id="bc" x1="2.9965" x2="20.345" y1="262.75" y2="262.75" gradientUnits="userSpaceOnUse" xlink:href="#ray"/><linearGradient id="bb" x1="3.7022" x2="28.777" y1="249.37" y2="249.37" gradientUnits="userSpaceOnUse" xlink:href="#ray"/><linearGradient id="ba" x1="30.49" x2="46.73" y1="248.42" y2="248.42" gradientUnits="userSpaceOnUse" xlink:href="#ray"/><linearGradient id="az" x1="31.986" x2="52.462" y1="256.48" y2="256.48" gradientUnits="userSpaceOnUse" xlink:href="#ray"/><linearGradient id="ay" x1="32.089" x2="52.97" y1="261.47" y2="261.47" gradientUnits="userSpaceOnUse" xlink:href="#ray"/><linearGradient id="ax" x1="79.86" x2="148.52" y1="271.57" y2="271.57" gradientUnits="userSpaceOnUse" xlink:href="#ray"/><linearGradient id="aw" x1="80.364" x2="119.2" y1="280.62" y2="280.62" gradientUnits="userSpaceOnUse" xlink:href="#ray"/></defs><g transform="translate(0,-234)"><image id="face" x="30.414" y="237.07" width="68.929" height="45.935" image-rendering="optimizeQuality" preserveAspectRatio="none" xlink:href="/Volumes/raid/Users/john/MetroState/CMS/sources/Coupon money/face.jpg"/><path id="paperb" d="m-0.020719 233.98h74.975v7.8802s-4.1192-4.0097-12.568-0.98336-8.9245 9.5537-9.8189 13.597c-0.639 4.1151 0.21956 8.836 0.57594 12.152 0.2558 2.397 0.03893 5.3347 1.5847 7.2774 4.5668 5.7392 19.899 9.3913 19.899 9.3913l0.3274 13.727h-74.975z" fill="url(#ah)"/><path id="papera" d="m74.924 233.98h77.096v63.04h-77.096l-0.33348-6.8733 1.7977-24.414-1.6314-2.7585z" fill="url(#at)"/><path d="m80.51 274.71 38.539 11.82" fill="url(#ray)" fill-rule="evenodd" stroke="url(#aw)" stroke-opacity=".86333"/><path id="paperc" d="m140.87 263.93c-0.0225 4.9702-1.2224 10.259-4.6908 13.994-2.7968 3.1296-7.7948 4.2389-11.466 2.0083-4.1777-2.4947-6.3558-7.2762-7.1501-11.913-0.78717-5.1546-0.23982-10.678 2.2796-15.307 1.7788-3.3111 5.1608-5.9456 9.0346-5.9587 3.9443-0.0978 7.1735 2.8574 9.0718 6.0699 1.9823 3.336 2.9174 7.2416 2.9211 11.107z" fill="url(#Lpaper)"/><g fill="none" stroke-opacity=".86333"><path d="m79.961 264.52 68.46 14.094" stroke="url(#ax)"/><path d="m28.43 253.12-24.911 37.081" stroke="url(#bd)"/><path d="m28.634 253.09-24.788-7.4337" stroke="url(#bb)"/><path d="m28.741 253.38 17.694-10.66" stroke="url(#ba)"/><path d="m28.763 253.21 23.588 5.5709" stroke="url(#az)"/><path d="m28.645 253.21-25.452 13.168" stroke="url(#bc)"/><path d="m28.522 253.42 24.251 12.436" stroke="url(#ay)"/></g><rect x="4.9067" y="286.6" width="142.09" height="7.2865" fill="#010000" stroke="#000" stroke-linecap="square" stroke-width=".013494"/><path d="m4.9 286.24 142.1-0.0594" fill="none" stroke="#000" stroke-width=".107"/><path id="a" d="m4.685 237.12v0.43874c-0.11327 0.0233-0.13225 0.18605-0.2522 0.19146-0.11895-0.0406-0.17094-0.18795-0.18851-0.30158-0.012013-0.0565-0.084477-0.15709 0.028476-0.14984 0.1225 5.9e-4 0.15832 0.14567 0.15782 0.24486 0.00199 0.0363-0.00798 0.17303 0.034604 0.0791 0.0885-0.0827 0.1285-0.24676 0.0085-0.32151-0.049888-0.0625-0.12299-0.10522-0.2043-0.0907h-0.22657c-0.12459 0.0629-0.267 4.8e-4 -0.39579 0.0324-0.079087 0.0661-0.07772 0.20087-0.11357 0.28786 0.011564 0.10303-0.14967 0.20198-0.18219 0.0728-0.032625-0.12246-0.017783-0.26769-0.049211-0.39086-0.00182-0.0363-0.0063-0.0923-0.0063-0.0923s-0.10594 5.1e-4 -0.16303 7.9e-4c0 0-4e-7 0.0686-7.349e-4 0.12325-0.00271 0.7137-0.00115 1.4274-0.00155 2.1411h0.14052s-0.076788-0.27955 0.00736-0.14523c0.10678 0.0178 0.13148-0.096 0.18666-0.15818 0.038843-0.0996-0.082252-0.0597-0.089358 9e-3 0.010911 0.0672-0.17843 0.0431-0.13958-0.0722 0.032139-0.099 0.085255-0.12671 0.13226-0.21918 0.095398-0.0778 0.23555 0.1668 0.2577 0.23755-0.016427 0.13344 0.10705 0.0332 0.13205 0.14932 0.034404 0.0979 0.11224 0.0349 0.16687 0.1253 0.092677-0.0392 0.17705 0.0455 0.27904 0.0269 0.10494 0.0276 0.19713 9e-3 0.27948-0.0603 0.074264-0.0418 0.161-0.12529 0.11727-0.21758-0.00529-0.0646-0.12873-0.2133-0.1363-0.0754 0.00732 0.0982-0.00233 0.26401-0.14018 0.24657-0.13984-7e-3 -0.29889-0.0727-0.4193-0.13508-0.10926-0.0638-0.18911-0.16308-0.29017-0.23534-0.074078-0.0961-0.14489-0.1752-0.21819-0.27205-0.098727-0.072-0.071226-0.19344-0.15194-0.28598-0.039651-0.12535 0.085755-0.22612 0.14203-0.32629 0.024681-0.0859 0.1284-0.0719 0.084431 0.0197-0.046556 0.0893-0.15932 0.15671-0.11853 0.27843 0.013151 0.0841 0.036461 0.18375 0.12074 0.19898 0.047018 0.095 0.12297 0.22669 0.23687 0.21608 0.037991 0.0594 0.021943 0.19863 0.12735 0.14312 0.00627 0.11736 0.10243 0.0213 0.15619 0.0462 0.00884 0.0388 0.033837 0.2063 0.088762 0.11965 0.065273-0.15165 0.038161 0.17959 0.12675 0.0791 0.064429-0.0888 0.078134-0.23222 0.19925-0.26614 0.124-0.0352 0.26558 0.0648 0.26104 0.19648 0.020549 0.1246 0.013849 0.25128 0.016001 0.37698l0.094629 1e-4s-6.69e-5 -0.17432-2.869e-4 -0.26476c8.829e-4 -0.66693 5.761e-4 -1.3339-0.00136-2.0008-0.031168-1.1e-4 -0.062401 2.1e-4 -0.093527-1.6e-4zm-0.58741 0.2744c0.08305-5e-3 0.047212 0.12527-0.016371 0.0655-0.041356 0.0374-0.064771 0.1069-0.12741 0.0658-0.062417 0.0386-0.091823 0.14414-0.17743 0.11153-0.049826 0.0503-0.046927 0.20244-0.15222 0.15117-0.023599 0.0391-0.078473 0.18165-0.11027 0.0788 0.037252-0.13361 0.16963-0.20266 0.24428-0.31174 0.096264-0.08 0.22043-0.13802 0.33941-0.161zm0.079562 0.16485c0.0768 0.0922 0.12217 0.24422 0.25681 0.26292 0.085477 0.0181 0.24777-0.15465 0.23783 6e-3 0.018256 0.23821 0.013653 0.47772 0.010739 0.71644-0.022011 0.0699 0.020168 0.20826-0.06843 0.22793-0.089523-0.1078-0.25383-0.0411-0.33913 0.0388-0.050436 0.0891-0.14833 0.11367-0.21916 0.0344-0.15188-0.098-0.289-0.21706-0.4269-0.3333-0.071345-0.0665-0.13594-0.13996-0.19634-0.21647-0.026322-0.11563 0.085671-0.18934 0.15381-0.26271 0.058565-0.0611 0.11258-0.15684 0.19957-0.17055-0.057345 0.10894-0.1614 0.18521-0.22852 0.2867-0.14035 0.0821 0.034685 0.18373 0.089582 0.26039 0.12744 0.13615 0.26871 0.26196 0.42932 0.35741 0.11363 0.0274 0.1837-0.0971 0.2785-0.1321 0.10372-0.012 0.19276-0.0144 0.16991-0.1635-0.00286-0.13019 0.020476-0.26462-0.00255-0.39393 0.015086-0.0956 0.00716-0.16271-0.092026-0.13863-0.12598-0.0193-0.17513-0.16978-0.27333-0.24073-0.0885-0.12414-0.17932 0.14867-0.28708 0.0727 0.085307-0.0864 0.19044-0.17046 0.30346-0.20846l0.00392-4e-3zm-0.052697 0.21808c0.048696 0.0904-0.046785 0.18989-0.00805 0.28764-0.015385 0.0539-0.013188 0.24396 0.069622 0.16204 0.060164-0.10224-0.015378-0.23491 0.048261-0.33231 0.03812 0.1004 0.029853 0.23991 0.03892 0.35515-0.00482 0.13036 0.00838 0.27204-0.042821 0.39315-0.075604 0.10139-0.21565 0.0617-0.29239-0.0156-0.12002-0.0915-0.2247-0.20288-0.31499-0.32333-0.054842-0.12526 0.080674-0.22346 0.15681-0.30396 0.099866-0.0886 0.20631-0.18135 0.33564-0.22135-0.00156-4e-3 0.00912 2e-3 9e-3 -1e-3zm-0.29655 0.98702v0z" fill-rule="evenodd"/><rect id="border" x="3.1251" y="237.13" width="145.75" height="56.75" fill="none" stroke="#000" stroke-linecap="square" stroke-miterlimit="0" stroke-width=".2502"/><use transform="translate(0 2.2661)" width="100%" height="100%" xlink:href="#a"/><use transform="translate(0 4.5323)" width="100%" height="100%" xlink:href="#a"/><use transform="translate(0 6.7984)" width="100%" height="100%" xlink:href="#a"/><use transform="translate(0 9.0646)" width="100%" height="100%" xlink:href="#a"/><use transform="translate(0 11.331)" width="100%" height="100%" xlink:href="#a"/><use transform="translate(0 13.597)" width="100%" height="100%" xlink:href="#a"/><use transform="translate(0 15.863)" width="100%" height="100%" xlink:href="#a"/><use transform="translate(0 18.129)" width="100%" height="100%" xlink:href="#a"/><use transform="translate(0 20.395)" width="100%" height="100%" xlink:href="#a"/><use transform="translate(0 22.661)" width="100%" height="100%" xlink:href="#a"/><use transform="translate(0 24.928)" width="100%" height="100%" xlink:href="#a"/><use transform="translate(0 27.194)" width="100%" height="100%" xlink:href="#a"/><use transform="translate(0 29.46)" width="100%" height="100%" xlink:href="#a"/><use transform="translate(0 31.726)" width="100%" height="100%" xlink:href="#a"/><use transform="translate(0 33.992)" width="100%" height="100%" xlink:href="#a"/><use transform="translate(0 36.258)" width="100%" height="100%" xlink:href="#a"/><use transform="translate(0 38.524)" width="100%" height="100%" xlink:href="#a"/><use transform="translate(0 40.791)" width="100%" height="100%" xlink:href="#a"/><use transform="translate(0 43.057)" width="100%" height="100%" xlink:href="#a"/><use transform="translate(0 45.323)" width="100%" height="100%" xlink:href="#a"/><use transform="translate(0 47.589)" width="100%" height="100%" xlink:href="#a"/><use transform="translate(0 49.855)" width="100%" height="100%" xlink:href="#a"/><use transform="translate(0 52.121)" width="100%" height="100%" xlink:href="#a"/><use transform="translate(0 54.387)" width="100%" height="100%" xlink:href="#a"/><use transform="matrix(-1 0 0 1 151.94 .03267)" width="100%" height="100%" xlink:href="#a"/><use transform="matrix(-1 0 0 1 151.94 2.2988)" width="100%" height="100%" xlink:href="#a"/><use transform="matrix(-1 0 0 1 151.94 4.5649)" width="100%" height="100%" xlink:href="#a"/><use transform="matrix(-1 0 0 1 151.94 6.8311)" width="100%" height="100%" xlink:href="#a"/><use transform="matrix(-1 0 0 1 151.94 9.0972)" width="100%" height="100%" xlink:href="#a"/><use transform="matrix(-1 0 0 1 151.94 11.363)" width="100%" height="100%" xlink:href="#a"/><use transform="matrix(-1 0 0 1 151.94 13.63)" width="100%" height="100%" xlink:href="#a"/><use transform="matrix(-1 0 0 1 151.94 15.896)" width="100%" height="100%" xlink:href="#a"/><use transform="matrix(-1 0 0 1 151.94 18.162)" width="100%" height="100%" xlink:href="#a"/><use transform="matrix(-1 0 0 1 151.94 20.428)" width="100%" height="100%" xlink:href="#a"/><use transform="matrix(-1 0 0 1 151.94 22.694)" width="100%" height="100%" xlink:href="#a"/><use transform="matrix(-1 0 0 1 151.94 24.96)" width="100%" height="100%" xlink:href="#a"/><use transform="matrix(-1 0 0 1 151.94 27.226)" width="100%" height="100%" xlink:href="#a"/><use transform="matrix(-1 0 0 1 151.94 29.492)" width="100%" height="100%" xlink:href="#a"/><use transform="matrix(-1 0 0 1 151.94 31.759)" width="100%" height="100%" xlink:href="#a"/><use transform="matrix(-1 0 0 1 151.94 34.025)" width="100%" height="100%" xlink:href="#a"/><use transform="matrix(-1 0 0 1 151.94 36.291)" width="100%" height="100%" xlink:href="#a"/><use transform="matrix(-1 0 0 1 151.94 38.557)" width="100%" height="100%" xlink:href="#a"/><use transform="matrix(-1 0 0 1 151.94 40.823)" width="100%" height="100%" xlink:href="#a"/><use transform="matrix(-1 0 0 1 151.94 43.089)" width="100%" height="100%" xlink:href="#a"/><use transform="matrix(-1 0 0 1 151.94 45.355)" width="100%" height="100%" xlink:href="#a"/><use transform="matrix(-1 0 0 1 151.94 47.622)" width="100%" height="100%" xlink:href="#a"/><use transform="matrix(-1 0 0 1 151.94 49.888)" width="100%" height="100%" xlink:href="#a"/><use transform="matrix(-1 0 0 1 151.94 52.154)" width="100%" height="100%" xlink:href="#a"/><use transform="matrix(-1 0 0 1 151.94 54.42)" width="100%" height="100%" xlink:href="#a"/><rect x="4.9061" y="237.11" width="142.09" height="5.9878" fill="#010000" stroke="#000" stroke-linecap="square" stroke-width=".012233"/><text id="c" x="10.876323" y="252.8522" fill="url(#bf)" font-size="1.7639px" xml:space="preserve">10</text><g id="b"><path d="m6.3355 241.19c-0.52993-5e-3 -0.98302-0.12247-1.3692-0.23313" fill="none" stroke="url(#linearGradient20465)" stroke-width=".19566"/><path d="m18.799 243.04c0.37251-1.2893 0.28039-2.586 0.35459-3.8794 0.22635-0.63098 0.1995-1.2702 0.28797-1.9046" fill="none" stroke="url(#cm)" stroke-width=".19566"/><path d="m19.85 243.04c0.551-1.6265-0.11505-3.261 0.0081-4.8914 0.0118-0.29946 0.03833-0.59886 0.07973-0.89804" fill="none" stroke="url(#cl)" stroke-width=".19566"/><path d="m20.839 237.77c-0.25883-0.17535-0.5159-0.35102-0.76554-0.52788" fill="none" stroke="url(#ck)" stroke-width=".19566"/><path d="m20.839 238.25c-0.4969-0.33187-0.99103-0.66428-1.4583-1.001" fill="none" stroke="url(#cj)" stroke-width=".19566"/><path d="m20.839 238.71c-0.72846-0.48306-1.4606-0.96592-2.1234-1.4597" fill="none" stroke="url(#ci)" stroke-width=".19566"/><path d="m20.839 239.14c-0.94964-0.62579-1.9168-1.2495-2.7609-1.8925" fill="none" stroke="url(#ch)" stroke-width=".19566"/><path d="m20.839 239.45c-1.1228-0.72789-2.2884-1.4501-3.2753-2.2004" fill="none" stroke="url(#cg)" stroke-width=".19566"/><path d="m20.788 240.28c-0.78669-0.65194-1.8659-1.2585-2.8458-1.8781-0.86696-0.3678-1.7255-0.73989-2.4064-1.1511" fill="none" stroke="url(#cf)" stroke-width=".19566"/><path d="m20.839 239.81c-1.4014-0.84828-2.8711-1.6867-4.0952-2.566" fill="none" stroke="url(#ce)" stroke-width=".19566"/><path d="m12.814 243.04c1.3418-1.3898 2.6837-2.7795 4.0255-4.1693" fill="none" stroke="url(#cd)" stroke-width=".19566"/><path d="m7.5284 243.05c-0.85401-0.28386-1.708-0.5677-2.5621-0.85156" fill="none" stroke="url(#cc)" stroke-width=".19566"/><path d="m6.5169 237.25c-0.47056 0.3924-0.9834 0.77923-1.5506 1.157" fill="none" stroke="url(#cb)" stroke-width=".19566"/><path d="m17.582 243.04c0.55226-1.41 0.93868-2.8315 0.87269-4.2547 0.20474-0.29098 0.53182-0.57606 0.52843-0.88048 0.03543-0.21791 0.02243-0.43638-0.0072-0.65429" fill="none" stroke="url(#ca)" stroke-width=".19566"/><path d="m15.879 237.25c-0.26091 0.7703-0.5244 1.5616-1.4924 2.2739-0.31424 0.23011-0.94637 0.4882-1.7945 0.41863-1.5196-0.12468-2.6077-0.54716-3.6038-0.92493-1.3479-0.54455-2.4631-1.1496-3.4846-1.7676" fill="none" stroke="url(#bz)" stroke-width=".19566"/><path d="m13.852 237.25c-0.40799 0.99733-0.92635 2.0099-2.2016 2.929-0.5318 0.35184-1.3019 0.77067-2.6049 0.7903-1.3271-0.0332-2.277-0.40532-3.0694-0.72872-0.36444-0.15654-0.69731-0.32115-1.0094-0.4899" fill="none" stroke="url(#by)" stroke-width=".19566"/><path d="m15.053 243.04c-1.7602-0.59003-3.3538-1.2848-5.6534-1.648-1.3817-0.20653-3.0069-0.24079-4.4329-0.0634" fill="none" stroke="url(#bx)" stroke-width=".19566"/><path d="m18.711 243.04c-1.5298-0.76013-3.323-1.5061-5.7538-1.9546-1.2587-0.22905-2.8872-0.33956-4.1681-0.0664-1.506 0.28982-2.6942 0.73087-3.823 1.1657" fill="none" stroke="url(#bw)" stroke-width=".19566"/><path d="m11.104 243.04c-1.8035-0.64636-3.7493-1.2857-6.1376-1.6818" fill="none" stroke="url(#bv)" stroke-width=".19566"/><path d="m8.2745 237.25c-0.84709 0.87405-1.8651 1.738-3.3081 2.522" fill="none" stroke="url(#bu)" stroke-width=".19566"/><path d="m16.621 237.25c-0.09163 0.60338-0.12953 1.2353-0.90223 1.7925-0.3606 0.33001-1.5719 0.3452-2.3395 0.17495-1.8458-0.35391-3.1102-0.9549-4.2919-1.5321-0.28283-0.14311-0.55578-0.28843-0.82075-0.43535" fill="none" stroke="url(#bt)" stroke-width=".19566"/><path d="m17.367 237.25c0.01837 0.4681 0.11114 0.96885-0.52506 1.3995-0.40467 0.27547-1.4936 0.21488-2.0907 0.0523-1.5049-0.37449-2.5075-0.93319-3.5137-1.4518" fill="none" stroke="url(#bs)" stroke-width=".19566"/><path d="m17.701 237.25c0.27263 0.34888 0.65223 0.71948 0.40038 1.082-0.33926 0.32802-1.5992 0.16444-2.0676-0.039-0.86402-0.30811-1.4876-0.68128-2.1277-1.0429" fill="none" stroke="url(#br)" stroke-width=".19566"/><path d="m14.761 237.25c-0.1956 0.89754-0.43435 1.8235-1.5737 2.6502-0.29169 0.19163-0.66412 0.3804-1.2149 0.49781" fill="none" stroke="url(#bq)" stroke-width=".19566"/><path d="m12.541 237.25c-0.44972 0.96945-1.1889 1.93-2.3375 2.8337-0.40948 0.30347-0.87168 0.60636-1.5537 0.85178" fill="none" stroke="url(#bp)" stroke-width=".19566"/><path d="m11.416 237.25c-0.80158 1.0993-1.7125 2.2057-3.3093 3.2087-0.46941 0.27651-1.0007 0.55371-1.7707 0.74644" fill="none" stroke="url(#bo)" stroke-width=".19566"/><path d="m10.019 237.25c-1.0635 1.1257-2.2404 2.2562-4.0992 3.2654-0.28917 0.1506-0.60083 0.29675-0.95314 0.43152" fill="none" stroke="url(#bn)" stroke-width=".19566"/><path d="m14.528 243.04c1.0353-1.44 2.1385-2.8758 2.9679-4.3312 0.03168-0.0642 0.0619-0.12832 0.08097-0.19307" fill="none" stroke="url(#bm)" stroke-width=".19566"/><path d="m16.2 243.04c0.76913-1.3637 1.5423-2.7343 1.7413-4.1234 0.01567-0.16598 0.01779-0.33226-0.01354-0.49806" fill="none" stroke="url(#bl)" stroke-width=".19566"/><path d="m20.695 243.04c-1.2972-0.84111-2.7169-1.6937-4.8436-2.3324-1.0015-0.30221-2.511-0.5409-3.8161-0.30906-1.0834 0.21071-2.4537 0.10018-3.3336-0.17517-1.6676-0.50081-2.6746-1.1965-3.7356-1.8447" fill="none" stroke="url(#bk)" stroke-width=".19566"/><path d="m20.839 242.38c-1.1622-0.82116-2.2779-1.6679-3.9897-2.3801-0.47181-0.2078-1.261-0.37782-2.0483-0.25688-1.6831 0.2242-2.9337 0.69013-4.159 1.1203-1.8409 0.68058-3.4889 1.4173-5.0656 2.1681" fill="none" stroke="url(#bj)" stroke-width=".19566"/><path d="m20.839 241.71c-0.93301-0.78198-1.7879-1.5868-3.1567-2.2978-0.36243-0.29125-1.3952-0.2983-2.0125-0.0978-1.603 0.42779-2.6641 1.0333-3.7403 1.6076-1.2256 0.68602-2.3253 1.3967-3.3637 2.1165" fill="none" stroke="url(#bi)" stroke-width=".19566"/><path d="m20.839 241.19c-0.86783-0.75778-1.6351-1.537-2.839-2.2442-0.48152-0.35778-1.5363 9.8e-4 -1.9124 0.19587-1.5419 0.7318-2.5181 1.5759-3.5298 2.3999-0.58353 0.49483-1.1316 0.99431-1.6555 1.4966" fill="none" stroke="url(#bh)" stroke-width=".19566"/></g><use transform="matrix(-1 0 0 1 41.572 0)" width="100%" height="100%" xlink:href="#b"/><use transform="translate(31.534)" width="100%" height="100%" xlink:href="#b"/><use transform="matrix(-1 0 0 1 73.106 0)" width="100%" height="100%" xlink:href="#b"/><use transform="translate(63.069)" width="100%" height="100%" xlink:href="#b"/><use transform="matrix(-1 0 0 1 104.64 0)" width="100%" height="100%" xlink:href="#b"/><use transform="translate(94.603)" width="100%" height="100%" xlink:href="#b"/><use transform="matrix(-1 0 0 1 136.17 0)" width="100%" height="100%" xlink:href="#b"/><use transform="translate(126.14)" width="100%" height="100%" xlink:href="#b"/><use transform="matrix(-.99995 0 0 1.2008 25.806 1.8217)" width="100%" height="100%" xlink:href="#b"/><use transform="matrix(.99995 0 0 1.2008 15.768 1.8217)" width="100%" height="100%" xlink:href="#b"/><use transform="matrix(-.99995 0 0 1.2008 57.339 1.8217)" width="100%" height="100%" xlink:href="#b"/><use transform="matrix(-1.2105 0 0 1.1981 118.71 2.4716)" width="100%" height="100%" xlink:href="#b"/><use transform="matrix(1.1722 0 0 1.1986 106.77 2.358)" width="100%" height="100%" xlink:href="#b"/><use transform="matrix(-.99995 0 0 1.2008 151.94 1.8217)" width="100%" height="100%" xlink:href="#b"/><path d="m4.9 243.45 142.1-0.05941" fill="none" stroke="#000" stroke-width=".10675"/><g id="l" transform="translate(-44.164 16.145)"><g transform="matrix(.084667 0 0 .084667 -82.338 116.98)" fill="url(#i)"><path d="m1619.1 1233c-0.208 18.404-0.416 36.809-0.624 55.213 4.866 6.788 12.594 10.84 20.221 13.768-0.508 2.0633 1.4989 6.6502-2.1041 5.6077-27.424-0.096-54.847-0.1911-82.271-0.2867-1.7244-6.2577 3.295-5.8708 8.3678-6.3126 6.4185-0.6997 12.605-5.8585 11.498-12.688 0.206-10.504 0.4119-21.009 0.6178-31.513-3.4371-6.9249-10.605-13.6-18.921-12.024-1.7967-6.253 3.6934-4.7846 8.2963-4.9344 6.855-0.4554 13.934-2.2064 19.468-6.2495 11.817-0.1934 23.634-0.3867 35.451-0.5801z" fill="url(#i)" stroke="#000" stroke-miterlimit="10"/></g><g transform="matrix(.084667 0 0 .084667 -82.338 116.98)"><path d="m1615 1236.7c0.033 17.452-0.065 34.913 0.048 52.36 2.1357 7.4123 9.7718 11.308 16.093 14.679-21.484-0.1767-42.969-0.3533-64.453-0.53 7.7706-0.5124 12.83-7.9641 11.586-15.413 0.1112-10.605 0.4631-21.279 0.1134-31.846-0.4441-5.4257-8.7471-11.763-9.9906-12.117 7.1187 0.5221 12.972-4.4593 18.855-6.634 9.2497-0.1665 18.499-0.3333 27.749-0.4997z" fill="none" stroke="#000" stroke-miterlimit="10"/></g><path d="m51.014 223.45c-0.19594-0.47787-0.78707-0.11833-1.0114-0.52195-0.18893-0.18858-0.37786-0.37717-0.5668-0.56576 0.69802-0.16426 1.3328 0.43538 1.5793 1.031l-6.94e-4 0.0356-4.11e-4 0.0211z" fill-rule="evenodd"/><path d="m55.581 222.16c-0.0053 0.46758-0.01056 0.93517-0.01584 1.4028-0.38404 0.67089-0.2667 1.4746-0.02435 2.1567l-0.0117 1.0345c-0.32737-0.25816-0.90326-0.52145-0.8135-1.0192 0.01639-1.4506 0.03278-2.9012 0.04917-4.3517 0.27207 0.25901 0.54416 0.51802 0.81622 0.77703z" fill-rule="evenodd"/><path d="m55.885 226.95c0.32677 0.1252 0.69978 0.19617 0.99748 0.35546 0.13209 0.32286 0.41797 0.60829 0.35845 0.97779 0.09418 0.31234-0.2829 0.15179-0.46318 0.18872-2.2269-8e-3 -4.4537-0.0155-6.6806-0.0233-0.29398-0.28599-0.58796-0.57197-0.88194-0.85796 0.14591 0.0843 0.42655 0.027 0.63622 0.0449 2.1912 8e-3 4.3825 0.0153 6.5737 0.0229 0.02635-0.30499 0.0403-0.59387-0.352-0.61929l-0.06459-0.0296-0.12354-0.0598z" fill-rule="evenodd"/><g transform="matrix(.084667 0 0 .084667 -82.338 116.98)" fill="url(#h)" stroke="#000"><path d="m1737 1271.3c-0.085 15.569-13.423 27.27-26.862 32.737-23.08 9.3582-51.736 7.3305-71.58-8.4227-10.254-7.8827-16.216-22.415-10.639-34.755 7.53-16.788 26.366-25.061 43.69-27.275 20.91-2.4725 44.626 2.7882 58.64 19.513 4.114 5.1374 6.7885 11.559 6.7524 18.202z" fill="url(#h)" stroke="#000" stroke-miterlimit="10"/></g><g transform="matrix(.084667 0 0 .084667 -82.338 116.98)"><path d="m1733.1 1271.3c-0.1423 14.775-13.267 25.467-26.047 30.301-21.559 8.0903-48.03 6.0512-66.254-8.7713-9.3016-7.309-14.337-20.834-8.744-31.878 7.8937-15.698 26.205-22.801 42.807-24.33 18.901-1.5209 40.161 3.5099 52.547 18.819 3.4794 4.5216 5.7211 10.106 5.6907 15.859z" fill="none" stroke="#000" stroke-miterlimit="10"/></g><g transform="matrix(.084667 0 0 .084667 -82.338 116.98)"><path d="m1681.4 1236.5c5.7495-1.0954 10.387 4.1936 9.31 9.7519-0.098 18.041 0.1961 36.103-0.1479 54.132-1.2935 6.4397-9.0314 6.4663-14.048 5.2058-6.0796-2.6743-4.0786-9.829-4.4246-15.071 0.097-16.078-0.1958-32.175 0.1479-48.24 0.8259-4.3792 5.1143-6.2132 9.1621-5.7781z" fill="none" stroke="#000" stroke-miterlimit="10"/></g><path d="m60.018 221.66c0.49927 0.0878 0.42167 0.68814 0.42446 1.075-0.0057 1.4445 0.01151 2.8898-0.0087 4.3338-0.0604 0.82263-1.0498 0.39617-0.8402-0.26517 0.0057-1.5514-0.01152-3.1036 0.0087-4.6544 0.0299-0.21655 0.16722-0.48186 0.41574-0.48918z" fill-rule="evenodd"/><path d="m65.508 225.28c-0.0072 1.3182-1.1366 2.3088-2.2744 2.7717-1.9561 0.79317-4.3811 0.61778-6.0638-0.71603-0.18999-0.15739-0.50234-0.45209-0.10248-0.1877 1.943 1.0001 4.4612 0.92192 6.2745-0.32888 0.9238-0.62272 1.585-1.8109 1.1965-2.9274-0.03106-0.33689-0.60091-0.9731-0.5337-0.97982 0.81186 0.5137 1.5089 1.3638 1.5034 2.368z" fill-rule="evenodd"/></g><use transform="matrix(.74098 0 0 1.3333 2.3855 -33.735)" width="100%" height="100%" xlink:href="#l"/><use transform="translate(125.64 .17738)" width="100%" height="100%" xlink:href="#l"/><use transform="translate(-1.9581 10.77)" width="100%" height="100%" xlink:href="#c"/><use transform="translate(4.3059 28.354)" width="100%" height="100%" xlink:href="#c"/><use transform="translate(12.891 -.48953)" width="100%" height="100%" xlink:href="#c"/><use transform="translate(3.2547 16.343)" width="100%" height="100%" xlink:href="#c"/><use transform="translate(-2.0831 23.794)" width="100%" height="100%" xlink:href="#c"/><use id="n" transform="matrix(.42507 0 0 .53258 12.57 85.616)" width="100%" height="100%" xlink:href="#dc"/><use id="m" transform="matrix(.42491 0 0 .55323 -.78428 79.564)" width="100%" height="100%" xlink:href="#db"/><use transform="translate(59.531)" width="100%" height="100%" xlink:href="#n"/><use transform="translate(59.531)" width="100%" height="100%" xlink:href="#m"/><text id="course" x="32.544353" y="284.1286" fill="#00000a" font-family="'Times New Roman'" font-size="2.4694px" font-weight="bold" stroke-linecap="square" stroke-width=".1" text-align="center" text-anchor="middle" style="line-height:50%" xml:space="preserve">-----COURSE-----</text><use transform="translate(2.5135 5.2917)" width="100%" height="100%" xlink:href="#c"/><use transform="translate(29.104 .13229)" width="100%" height="100%" xlink:href="#c"/><use transform="translate(-2.9104 3.3073)" width="100%" height="100%" xlink:href="#c"/><use transform="translate(5.424 11.245)" width="100%" height="100%" xlink:href="#c"/><g id="logoo" fill="url(#av)"><g id="logo" transform="matrix(.35278 0 0 -.35278 -48.188 404.59)"><path d="m384.7 361.21v-1.2146c-1.0265 0.0205-2.0528 0.0459-3.0793 0.066v19.072h5.3085c-1.2328-0.73614-2.4737-1.4597-3.7015-2.2037-0.4374-0.36943-0.23325-1.1279 0.26155-1.3416 0.44529-0.32291 1.0377-0.28502 1.5503-0.43567v-1.9204c-0.31926-0.3922 2.4e-4 -0.82476 0.0408-1.2146v-9.6016c-0.42764-0.25778-0.65201-0.75678-0.3803-1.2057z"/><path d="m401.64 377.17c0.19701 0.1613 0.2224 0.42448 0.2095 0.661 8e-3 0.28975-0.20881 0.53323-0.47335 0.6222-0.50822 0.2308-1.0164 0.4616-1.5246 0.6924h5.7239v-3.6186c-1.4732 0.43694-2.9608 0.82296-4.4359 1.2533 0.0672 0.0263 0.13257 0.06 0.1863 0.1089"/><path d="m389.5 377.45c0.15007 0.0655 0.30013 0.131 0.4502 0.1965 4e-3 -0.13917 9e-3 -0.27833 0.0129-0.4175-0.1505-0.0632-0.301-0.12647-0.4515-0.1897-4e-3 0.1369-8e-3 0.2738-0.0116 0.4107z"/><path d="m389.51 375.82c-5e-3 0.3237-9e-3 0.6474-0.0136 0.9711 0.15006 0.063 0.30012 0.12603 0.4502 0.189 4e-3 -0.32844 9e-3 -0.65687 0.0136-0.9853-0.15008-0.0582-0.30021-0.11632-0.4502-0.1748z"/><path d="m388.67 374.34c-0.1265-0.0458-0.253-0.0916-0.3795-0.1374-4e-3 0.29107-8e-3 0.58213-0.0116 0.8732 0.13028 0.0532 0.26035 0.10702 0.3911 0.1591"/><path d="m389.94 374.81c-0.14577-0.0528-0.29153-0.10567-0.4373-0.1585-4e-3 0.30353-9e-3 0.60707-0.0129 0.9106 0.15008 0.058 0.30023 0.11582 0.4502 0.1741"/><path d="m388.28 376.92c0.13008 0.0549 0.26012 0.10985 0.3903 0.1645 5e-3 -0.13369 8e-3 -0.26746 0.0116-0.4012-0.13007-0.0579-0.25999-0.11623-0.3904-0.1734-3e-3 0.13672-8e-3 0.2734-0.0115 0.4101z"/><path d="m389.29 374.57c-0.1387-0.0505-0.2774-0.10107-0.4161-0.1516-5e-3 0.299-9e-3 0.598-0.0136 0.897 0.14321 0.0554 0.28636 0.11088 0.4297 0.1659"/><path d="m388.29 375.34c-4e-3 0.3101-8e-3 0.6202-0.0115 0.9303 0.12984 0.0579 0.2596 0.11591 0.3896 0.1734 3e-3 -0.31464 8e-3 -0.62927 0.0123-0.9439-0.13012-0.0533-0.26021-0.10668-0.3904-0.1598z"/><path d="m388.88 375.58c-5e-3 0.31734-0.01 0.63467-0.0143 0.952 0.14329 0.0607 0.28665 0.12127 0.4298 0.1823 4e-3 -0.32257 9e-3 -0.64513 0.0136-0.9677-0.14307-0.0555-0.28624-0.11063-0.4291-0.1666z"/><path d="m388.87 377.17c0.14324 0.0628 0.28638 0.12588 0.4298 0.1883 6e-3 -0.1362 9e-3 -0.27246 0.0136-0.4087-0.14331-0.0602-0.28674-0.12011-0.4298-0.1809-5e-3 0.13377-9e-3 0.26753-0.0136 0.4013z"/><path d="m399.29 374.75v0.1605c0.16212-0.0416 0.32319-0.0873 0.4849-0.1305v-1.866c-0.0474 0.0113-0.0948 0.0227-0.1422 0.034v1.1282c-0.11447 0.0288-0.22851 0.0593-0.3427 0.0891v0.1591c0.11423-0.0295 0.22845-0.059 0.3427-0.0884v0.4223c-0.11443 0.0297-0.2287 0.0613-0.3427 0.0917z"/><path d="m400.13 374.51v0.1605c0.15808-0.0414 0.31548-0.0853 0.4733-0.1277v-1.8477l-0.1422 0.036v1.1146c-0.11011 0.0302-0.22069 0.0587-0.3311 0.0878v0.1591c0.11033-0.0287 0.22059-0.0577 0.3311-0.0857v0.4142c-0.11037 0.0295-0.22094 0.0595-0.3311 0.0889z"/><path d="m400.97 374.28v0.1605c0.15437-0.04 0.3078-0.0836 0.4618-0.125v-1.8307c-0.0472 0.012-0.0943 0.0241-0.1415 0.0361v1.105c-0.10649 0.0289-0.21349 0.056-0.3203 0.0837v0.1598c0.10678-0.0278 0.2136-0.0555 0.3203-0.0836v0.4073c-0.10639 0.0302-0.21368 0.0584-0.3203 0.0869z"/><path d="m401.81 374.04v0.1605c0.15159-0.0393 0.30227-0.0822 0.4535-0.1229v-1.8116l-0.1428 0.036v1.0942c-0.10368 0.0265-0.20715 0.0539-0.3107 0.0809v0.1598c0.10356-0.027 0.20709-0.0541 0.3107-0.0809v0.3999c-0.10346 0.0281-0.20752 0.0566-0.3107 0.0841z"/><path d="m402.65 373.81v0.1605c0.1479-0.0386 0.29507-0.0799 0.4427-0.1195v-1.794c-0.0436 0.0191-0.11839 0.0139-0.1428 0.0479v1.0715c-0.10014 0.0254-0.19997 0.052-0.2999 0.0782v0.1598c0.0999-0.0264 0.19978-0.0532 0.2999-0.0789v0.3938c-0.0999 0.0272-0.19981 0.0543-0.2999 0.0807z"/><path d="m403.48 373.58v0.1605c0.14388-0.0401 0.28838-0.0779 0.4325-0.1171v-1.7776c-0.0469 0.012-0.0939 0.024-0.1408 0.036v1.0731c-0.0975 0.0243-0.19451 0.0502-0.2917 0.0755v0.1605c0.0972-0.0258 0.19424-0.0521 0.2917-0.0769v0.3863c-0.097 0.0274-0.19462 0.0531-0.2917 0.0797z"/><path d="m404.32 373.35v0.1605c0.14167-0.0366 0.2824-0.0768 0.4237-0.1148v-1.7606c-0.0469 0.012-0.0939 0.024-0.1408 0.036v1.0636c-0.0945 0.0237-0.18864 0.0489-0.2829 0.0735v0.1584c0.0943-0.0245 0.18861-0.0489 0.2829-0.0734v0.3801c-0.094 0.0263-0.18895 0.0518-0.2829 0.0767z"/><path d="m405.16 373.11v0.1605c0.13845-0.0379 0.27701-0.0754 0.4155-0.1131v-1.7443c-0.0474 0.012-0.0947 0.0241-0.1421 0.0361v1.0534c-0.0913 0.0235-0.18229 0.0479-0.2734 0.072v0.1592c0.0911-0.0238 0.18201-0.0482 0.2734-0.0707v0.3733c-0.0913 0.0239-0.1827 0.0486-0.2734 0.0736z"/><path d="m396.21 372.77c-0.18636 0.22733-0.35462 0.64463-0.55 0.75823-0.22666-0.23732-0.58149-0.46375-0.2026-0.75444 0.1575-0.19066 0.28926-0.67438 0.49838-0.27271 0.0847 0.0897 0.1692 0.17955 0.25422 0.26892zm-1.1737 0.3271c0.22827 0.24167 0.45653 0.48333 0.6848 0.725 0.23165-0.35386 0.4663-0.70578 0.6991-1.0589-0.22807-0.24163-0.45613-0.48327-0.6842-0.7249-0.23323 0.35293-0.46647 0.70587-0.6997 1.0588z"/><path d="m395.02 372.16c0.47765-0.10452 0.95525-0.20923 1.4328-0.3142v1.8266c-0.47731 0.11769-0.95517 0.23314-1.4328 0.3495m-0.1476 0.2469c0.58687-0.14257 1.1737-0.28513 1.7606-0.4277v-2.2456c-0.59707 0.13193-1.1941 0.26387-1.7912 0.3958v2.285l0.0306-8e-3z"/><path d="m398.84 361.17c-0.19346 0.0137-0.38714 0.0221-0.5807 5e-3 0.0858 0.26529-0.13978 0.23826-0.33254 0.24207-0.25645-0.0537-0.29452 0.0977-0.25776 0.31924 7e-3 0.18245 0.33722 0.0194 0.48349 0.0531 0.22917-0.016 0.45834-0.0319 0.68751-0.0479v-0.5713z"/><path d="m396.77 359.57c-0.31531 6e-3 -0.75006-0.0987-0.6216 0.3447v1.6206c-0.2115 0.0131-0.423 0.0263-0.6345 0.0394 0.0364 0.14561-0.10761 0.48482 0.15108 0.39197 0.36834-0.0259 0.73668-0.0519 1.105-0.0778v-0.3944"/><path d="m400.78 359.49c-0.31106-0.0111-0.66084-0.0619-0.5447 0.3448v1.4403c-0.1843 0.0116-0.3686 0.0231-0.5529 0.0347 0.0208 0.16426-0.0911 0.4709 0.1813 0.36541 0.30544-0.0214 0.61087-0.0427 0.9163-0.0641v-0.372"/><path d="m394.55 359.61c-0.31895 0.0224-0.80282-0.12044-0.6678 0.3461v1.7192c-0.22713 0.0147-0.45427 0.0295-0.6814 0.0442 0.0371 0.1497-0.10804 0.49478 0.15109 0.40632 0.39937-0.028 0.79874-0.0559 1.1981-0.0839v-0.4094"/><path d="m392.17 361.49c-0.23983 0.0113-0.47967 0.0227-0.7195 0.034 0.029 0.20957 0.0163 0.37999-0.24187 0.31967-0.14597 0.0477-0.44771-0.051-0.49323 0.0911 0.0202 0.16333-0.0904 0.46695 0.18131 0.36069 0.42443-0.0295 0.84886-0.0591 1.2733-0.0887v-0.7168z"/><path d="m405.57 361.27v-1.8803c-0.24277-0.0232-0.0787 0.35072-0.1265 0.51795v1.0314c-0.13575 0.056-0.4691-0.0733-0.4584 0.12017v0.25113"/><path d="m402.59 361.12v-1.6689c-0.3075-0.0204-0.61896-0.0475-0.5101 0.3412v1.3621c-0.16137 0.0316-0.41-0.019-0.5202 0.0609-3e-3 0.18579-0.0584 0.4273 0.21152 0.32011 0.27293-0.0191 0.54585-0.0382 0.81878-0.0573"/><path d="m404.3 360.91c-0.14543 0.0377-0.47897-0.12206-0.4794 0.0678-0.0283 0.15827-0.34107 0.0497-0.48366 0.10076 9e-3 0.15718-0.0811 0.44237 0.17867 0.33925 0.26147-0.0181 0.52293-0.0361 0.78439-0.0542v-0.4536z"/><path d="m381.62 358.36c0.37832 0.0708 0.57784-0.036 0.47729-0.44097-3e-4 -1.1805-5.9e-4 -2.3611-8.9e-4 -3.5416 0.42433 0.0186 0.84867 0.0371 1.273 0.0557 0.0726 0.23254-0.17799 0.77734 0.19454 0.72009 0.22599 0.0816 0.76182-0.13614 0.75346 0.1719v2.5246h-0.948c-0.0451 0.33996-0.0283 0.61767 0.3893 0.49172 0.49543-3e-3 0.99087-7e-3 1.4863-0.0102v-3.8144c0.44317 0.0195 0.88633 0.0389 1.3295 0.0584 0.0604 0.24981-0.17455 0.78446 0.24316 0.68954 0.27009 0.0462 0.76325-0.12278 0.62794 0.31454v2.267c-0.27432 0.0329-0.67785-0.0631-0.8711 0.0507-0.10927 0.4131 0.12086 0.48451 0.48662 0.41936 0.41129-3e-3 0.82259-6e-3 1.2339-8e-3v-3.6559c0.4078 0.0181 0.8156 0.0363 1.2234 0.0544 0.0588 0.24188-0.17329 0.76478 0.24317 0.66126 0.30034 0.01 0.69917-0.0755 0.55863 0.36008v2.1158c-0.23891 0.0611-0.72397-0.12365-0.8018 0.0983-0.13781 0.436 0.22393 0.36882 0.53528 0.3524 0.35134-3e-3 0.70268-5e-3 1.054-8e-3v-3.5105c0.3763 0.0166 0.7526 0.0331 1.1289 0.0497 0.0362 0.27118-0.14973 0.75665 0.29179 0.63675 0.3798-0.071 0.53964 0.0702 0.44801 0.45402v1.9245c-0.21944 0.0758-0.75597-0.16544-0.7398 0.14599-0.13431 0.44242 0.36374 0.24858 0.63261 0.28533 0.25816-0.0375 0.6578 0.0657 0.83349-0.0538v-3.3257c0.3482 0.0154 0.6964 0.0309 1.0446 0.0463 0.0327 0.26597-0.14558 0.73548 0.29179 0.61088 0.41373-0.10552 0.44433 0.15872 0.39441 0.50065v1.7875c-0.21947 0.0748-0.7683-0.17883-0.6862 0.19665-0.10037 0.40297 0.44562 0.15471 0.68127 0.21914 0.24674-0.062 0.78826 0.16851 0.67743-0.24841v-3.006c0.32393 0.0141 0.64787 0.0281 0.9718 0.0422 4e-3 0.30275-0.106 0.71593 0.34046 0.59058 0.43739-0.12893 0.2717 0.32572 0.29884 0.59378v1.6106c-0.23574 0.0585-0.76171-0.1733-0.6393 0.24332-0.0349 0.33192 0.50923 0.0812 0.72993 0.15596 0.34008 0.0301 0.66229 0.0424 0.53427-0.39269v-2.7443c0.3015 0.0131 0.603 0.0263 0.9045 0.0394-8.1e-4 0.30043-0.0996 0.69564 0.34045 0.56963 0.42299-0.11337 0.20102 0.3971 0.25455 0.64109v1.4844c-0.26364 0.0329-0.73625-0.14246-0.595 0.29398 0.0926 0.21485 0.5759 0.0364 0.82726 0.0914 0.43117 0.13534 0.36215-0.22613 0.34994-0.53117v-2.4947c0.26295 0.0458 0.66365-0.0404 0.8446 0.0841-0.0469 0.33788-0.0258 0.6101 0.38906 0.50239 0.33961-0.0286 0.0918 0.50958 0.16724 0.7359v1.317c-0.30024-1e-3 -0.69705-0.0991-0.5563 0.34064 0.221 0.0816 0.59581 9e-3 0.87592 0.0307 0.39803 0.10044 0.16059-0.43113 0.22438-0.6631v-2.2623c0.23288 0.0728 0.71843-0.0965 0.7895 0.13133-0.10963 0.40869 0.12163 0.48791 0.48635 0.43812 0.0793 0.22662 0.0112 0.59574 0.034 0.87709v1.1058c-0.32094-0.0253-0.64862-0.0574-0.5203 0.3665 0.34343-3e-3 0.68687-7e-3 1.0303-0.01v-2.8277c0.21961 0.085 0.75563-0.1333 0.7399 0.17729-0.12429 0.40146 0.17775 0.39062 0.4876 0.37221v1.9184c-0.30835-0.0273-0.61546-0.0534-0.4876 0.3546 0.23844-0.0605 0.76759 0.1674 0.6481-0.24832v-2.768c-7.9854-0.35343-15.971-0.71202-23.956-1.0622"/><path d="m391.16 359.17c-3.1804 0.0589-6.3607 0.11787-9.5411 0.1768 0.0419 0.5969 1.1891 0.0668 1.6644 0.22467 2.2651-0.0426 4.5303-0.0849 6.7954-0.12807-2e-3 0.37637 4e-3 0.76084-3e-3 1.1322-0.28192 0.40258 0.12178 0.75965 0.54 0.6677 0.5186 0.0527 1.0449 0.0312 1.5601-0.0304 0.34088-0.27237-0.028-0.65521 0.0656-1.0048 0.0769-0.26552-0.19131-0.86949 0.21513-0.81176 1.6443-0.0322 3.2885-0.0653 4.9328-0.0971-0.0164 0.42132 0.0472 0.85988-0.0619 1.2598-0.0302 0.48124 0.55628 0.32104 0.86267 0.37162 0.43981 0.0437 1.366 0.0459 1.0292-0.61682v-1.0507c1.3547-0.0266 2.7093-0.0537 4.064-0.0802 2e-3 0.40176 0.0154 0.80501-0.0517 1.1914 0.12287 0.41985 0.70056 0.22838 1.0408 0.27366 0.873 0.18411 0.59495-0.69223 0.59858-1.2071-0.26757-0.47803 1.1832-0.21369 0.55896-0.55452-0.24349 0.0624-0.72246-0.10641-0.80767 0.11132v1.2127c0.22555 0.23877-0.36403 0.16915-0.5454 0.1936v-1.4907c-1.7022 0.0338-3.4043 0.0675-5.1065 0.1013v1.4519c0.26018 0.24615-0.36435 0.19555-0.56337 0.21122-0.23431-0.0433-0.0376-0.53834-0.10233-0.75932v-0.8884c-2.1041 0.041-4.2081 0.0821-6.3122 0.1231v1.628c0.3111 0.23279-0.28971 0.2393-0.49892 0.23109-0.20404-0.0139-0.40211 0.12021-0.33418-0.19329"/><path d="m381.62 353.73c0.2251 8e-3 0.5087 0.0197 0.5114 0.0197l23.445 1.0276v-1.3125h-23.956"/><path d="m395.15 370.51c0.33298-0.16339 0.51278-0.0306 0.4448 0.30153v0.65393c-0.1484 0.0311-0.29672 0.0626-0.4448 0.0952m0-3.4989c0.33554-0.15075 0.51224-0.0129 0.4448 0.31653v1.8582c-0.1481 0.0303-0.29644 0.0594-0.4448 0.0884m0-4.5998c0.33786-0.13787 0.51172 6e-3 0.4448 0.33287v1.7501c-0.14813 0.0255-0.2965 0.0496-0.4448 0.0741m0.6175 2.5101c0.33187-0.16733 0.49922-0.0232 0.4339 0.30153v0.64433c-0.1445 0.0317-0.2894 0.0615-0.4339 0.0932m0-3.4676c0.33493-0.15272 0.49852-2e-3 0.4339 0.31923v1.8372c-0.14456 0.0287-0.28918 0.0571-0.4339 0.085m0-4.5536c0.33673-0.14201 0.49811 0.013 0.4339 0.33217v1.7297c-0.14459 0.0236-0.28926 0.0467-0.4339 0.07m-1.3567-4.3802v8.5027c0.83208-0.17666 1.6648-0.35037 2.4971-0.5259v-6.5618c-0.29133-0.0544-0.14614 0.33386-0.1788 0.50732v5.9082c-0.3171 0.18829-0.40497-0.0646-0.3536-0.32191v-6.1433c-0.27866-0.10369-0.14514 0.25238-0.1741 0.40501 0.10121 0.32686-0.2252 0.27398-0.45992 0.3025-0.22558-0.0192-0.69252 0.2308-0.59148-0.15614v-0.48947c0.25909-0.0401 0.8069-0.0734 0.88369-0.11364-0.40836-0.0855-0.48541-0.59742-0.33311-0.9254 0.0911-0.15431-0.0471-0.73309-0.0997-0.35102v1.1788c-0.33889 0.13515-0.51921-8e-3 -0.4509-0.33697v-0.93883c-0.29887-0.0516-0.14489 0.34913-0.1795 0.53096v7.7275c-0.32075 0.18875-0.44117-0.0391-0.3808-0.31641v-7.8965c-0.0596 5e-3 -0.11918 0.0106-0.1789 0.0143z"/><path d="m384.29 376.01l8.2952 3.781 8.0899-2.4291 0.3142 0.2795v0.1897l-8.4041 3.7484v-1.3566l-8.642-3.9777 0.3468-0.2352zm1.5485-3.3683l0.4352 0.1571v0.3209l-0.4352-0.157v-0.321zm9.2813 5.065c0.0306-9e-3 0.4291-0.1245 0.4842-0.1408v0.4176c-0.0327 9e-3 -0.4292 0.1292-0.4842 0.1455m0-1.6553c0.0326-8e-3 0.4168-0.1142 0.4706-0.1292v1.0106c-0.0327 9e-3 -0.4162 0.1224-0.4706 0.1374m0-2.438c0.0326-8e-3 0.4182-0.1088 0.4706-0.1231v1.201c-0.0327 0.0102-0.4169 0.1149-0.4706 0.1312m0.646 1.2554c0.032-0.0102 0.4162-0.1224 0.4713-0.1381v0.4121c-0.0306 9e-3 -0.4162 0.1252-0.4713 0.1415m0-1.6382c0.0326-8e-3 0.406-0.1116 0.4597-0.1259v0.9997c-0.0319 0.01-0.4046 0.1183-0.4597 0.134m0-2.4183c0.0326-8e-3 0.406-0.1047 0.4597-0.1197v1.1928c-0.0326 8e-3 -0.4046 0.1116-0.4597 0.1265m3.0568-5.8164s0.0354 0.0571 0.0354 0.0571 0.0299-0.0456 0.0299-0.0456 0.2917-0.4318 0.2917-0.4318v0.9847c-0.0183 5e-3 -0.1836 0.0415-0.357 0.0789m0-1.3744c0.0259 0.0388 0.0864 0.1129 0.2224 0.2714-0.0129 0.0231-0.1537 0.2441-0.2224 0.3488m0.357-1.5022v1.1289c-0.0278-0.0408-0.0972-0.1279-0.2849-0.3455-0.034-5e-3 -0.0571 0.0102-0.0721 0.0279v-0.746c0.1687-0.0313 0.3319-0.0626 0.357-0.0653zm-0.357-2.2945c0.17-0.0245 0.3319-0.0489 0.357-0.0523v2.1829c-0.0183 3e-3 -0.1836 0.0327-0.357 0.0639m0-4.5542c0.17-0.0198 0.3319-0.0374 0.357-0.0388v2.1843c-0.0204 3e-3 -0.1836 0.0279-0.357 0.0537m-15.035 10.449l8.6679 5.1479c0.0708 0.0408 0.1592 0.0456 0.2333 0.0136l8.402-3.7497c0.0931-0.0408 0.1503-0.1306 0.1503-0.2306v-0.1897c0-0.0721-0.0313-0.1408-0.083-0.1884l-0.3128-0.2802c-0.0252-0.0224-0.0551-0.0401-0.0871-0.051 0 0-0.5569-0.1931-1.0765-0.374 0.6563-0.1945 3.3499-0.9888 5.8906-1.7396v-0.2631l-7.0025 2.0666v0.4536l-2.1686 0.6522v-3.4084l-1.4553 0.3801v3.4656l-2.2775 0.6834v-3.5893l-1.1833-0.4325-0.5461 0.1394-0.8045-0.2924v3.0908l-2.0313-0.8983v-2.931s-1.8293-0.6645-1.8293-0.6645v-0.3325l4.6508 1.6892v7e-4l0.0143 3e-3 0.5461-0.1394 1.2125 0.4434 6.132-1.5104v0.2646l-0.2598 0.0646v1.4349 0.0149l-2e-3 0.5638s-0.2265 0.0653-0.2265 0.0653l-0.4624 0.3019v0.1802l0.6909 0.3074-0.3298-0.1809 7.3323-2.1741v-1.0201l-6.7495 1.8715v-1.2438c0.0259-7e-3 0.0687-0.0163 0.0687-0.0163 0.1115-0.0292 0.1911-0.1299 0.1911-0.2462v-0.1917c0-0.1136-0.0762-0.2136-0.1857-0.2435 0 0-0.0448-0.0122-0.0741-0.0204v-0.4998l6.7495-1.6247v-0.206l-6.7495 1.626v-1.2221l6.7495-1.494v-0.3469l-1e-3 1e-3v-7.0916l-0.1448 0.01v0.5991c-0.0422 3e-3 -0.6209 0.07-0.6209 0.07v0.1571s0.5699-0.0653 0.6209-0.07v1.9667c-0.0401 7e-3 -0.6209 0.0918-0.6209 0.0918v0.1618s0.5685-0.085 0.6209-0.0931v1.9633c-0.0395 8e-3 -0.6209 0.1142-0.6209 0.1142v0.1639s0.5665-0.1034 0.6209-0.1149v0.9759c-0.034-0.049-0.0939-0.1313-0.2061-0.2748-0.0503-8e-3 -0.0788 0.0327-0.0925 0.0537v8e-3c0 0.0218 0.0191 0.0544 0.1973 0.2883-0.013 0-0.2054 0.3305-0.2054 0.3305v1e-3c0 0.0184 0.0394 0.0918 0.0394 0.0918l0.0232 0.0361s0.0326-0.051 0.0326-0.051 0.2115-0.3387 0.2115-0.3387v0.8398c-0.0381 8e-3 -0.6209 0.1374-0.6209 0.1374v0.1408l-0.6841 0.1489v-7.2901c-0.049 5e-3 -0.0979 0.01-0.1456 0.0129v0.6413c-0.0224 3e-3 -0.1958 0.0231-0.3536 0.0408-7e-3 -0.0211 0.0286 0.0775 0.0313 0.1523 0.1734-0.0197 0.3067-0.034 0.3223-0.036v2.0177c-0.0394 7e-3 -0.6548 0.0986-0.6548 0.0986v0.1585s0.6032-0.0871 0.6548-0.0966v2.0143c-0.0374 7e-3 -0.6548 0.121-0.6548 0.121v0.1639s0.6018-0.1095 0.6548-0.1197v1.0099c-0.0326-0.0489-0.0972-0.1326-0.2216-0.291-0.0517-9e-3 -0.0789 0.0306-0.0939 0.0516v0.0102c0 0.0211 0.0204 0.0538 0.2108 0.2959-0.0143 0-0.2203 0.342-0.2203 0.342l-7e-4 2e-3c0 0.0197 0.0435 0.0918 0.0435 0.0918l0.0211 0.034s0.0327-0.049 0.0327-0.049l0.2284-0.3604v0.8738c-0.0367 8e-3 -0.6548 0.1442-0.6548 0.1442v0.1408l-0.7202 0.1571v-6.0368c-0.034 5e-3 -0.0701 5e-3 -0.1054 0l-0.0395-3e-3v1.4743c-0.0408 5e-3 -0.6929 0.1013-0.6929 0.1013v0.1605s0.6385-0.0952 0.6929-0.1013v2.0667c-0.0394 6e-3 -0.6929 0.1271-0.6929 0.1271v0.1653s0.6385-0.119 0.6929-0.1292v1.0493c-0.0306-0.0476-0.0979-0.1326-0.2421-0.3094-0.051-8e-3 -0.0788 0.0292-0.0918 0.0523-1e-3 1e-3 -1e-3 5e-3 -1e-3 8e-3 0 0.0197 0.0251 0.0585 0.2156 0.2945-0.0177 0.0292-0.2238 0.3651-0.2238 0.3651v3e-3c0 0.0183 0.0435 0.0904 0.0435 0.0904s0.0191 0.0327 0.0191 0.0327 0.0319-0.0476 0.0319-0.0476l0.2489-0.3829v0.9099c-0.0374 8e-3 -0.6929 0.1523-0.6929 0.1523v0.1408l-0.759 0.1666v-7.7151l-0.1455 0.0129v0.7378c-0.0422 5e-3 -0.7338 0.0837-0.7338 0.0837v0.1571s0.6814-0.0789 0.7338-0.0837v2.1272c-0.0401 7e-3 -0.7338 0.1095-0.7338 0.1095v0.1605s0.6801-0.1013 0.7338-0.1095v2.1258c-0.0388 6e-3 -0.7338 0.1326-0.7338 0.1326v0.1653s0.678-0.1245 0.7338-0.1347v1.0868c-0.0292-0.0442-0.0993-0.1306-0.2625-0.3271-0.0503-7e-3 -0.0762 0.0306-0.0904 0.0523v8e-3c0 0.0211 0.0244 0.0605 0.2271 0.3026-0.0177 0.0292-0.236 0.3781-0.236 0.3781v3e-3c0 0.0177 0.0422 0.0884 0.0422 0.0884s0.0204 0.034 0.0204 0.034l0.0313-0.0476 0.2679-0.4053v0.9453c-0.0367 8e-3 -0.7338 0.1605-0.7338 0.1605v0.1428l-0.7997 0.1748v-7.943l-0.1449 0.0129v0.7889c-0.0204 3e-3 -0.1842 0.021-0.357 0.0408v-0.8018l-0.253 0.0197v0.812 0.1571 2.2074 0.1598 2.2047 0.1633 2.2013 0.1421 0.0245 0.3407 1.2288 0.2041 0.5848l-5.9014 1.4533v-11.398c-0.4502 0.0374-0.8664 0.0721-1.1833 0.098v10.833l-0.5576 0.1415v-9.2255c-0.0728 0.0605-0.1633 0.1033-0.2659 0.1149-0.6971 0.0768-0.9467 0.0979-1.0874 0.0734 0.0142 5e-3 0.0258 0.0184 0.0421 0.0211l-0.6562-0.1156c-0.2163-0.0381-0.3734-0.2149-0.4046-0.4291-0.0796 0.0687-0.1762 0.1197-0.2877 0.1292l-0.7487 0.0592c-0.0436 3e-3 -0.0864 0-0.1293-7e-3l-0.5848-0.1027c-0.2421-0.0429-0.4169-0.2523-0.4169-0.4992v-0.2047c0-0.087 0.0279-0.1686 0.0687-0.2441v-1.0126c-0.1224-0.1047-0.4223-0.3652-0.7018-0.6039v9.8376c-0.0972 0.036-0.1714 0.1217-0.1714 0.2292v0.2094c0 0.0905 0.0565 0.1653 0.1326 0.2115v2.4006c-0.3135 0.0639-1.4763 0.2979-1.4763 0.2979-0.0334 7e-3 -0.0626 0.0197-0.0905 0.0394l-0.3482 0.236c-0.0605 0.0394-0.0993 0.1027-0.1101 0.1747l-0.0252 0.1864c-1e-3 0.0115-3e-3 0.0238-3e-3 0.0353 0 0.0884 0.0483 0.1721 0.1244 0.217z"/><path d="m388.23 364.68c-0.2352-0.01-0.58283 0.10249-0.748 0.0171v-1.6716c0.19544 0.0916 0.65437-0.045 0.6494 0.22006v1.2039c0.16094-7e-3 0.0793 0.127 0.0986 0.2305zm-2.8739-2.7916c0.39602 0.48664 1.2376 0.76861 1.3601 1.3801v1.0137c-0.2478 0.35076 0.0895 0.6997 0.46965 0.66254 0.38019 0.0866 0.7777 0.0102 1.1574-0.0379 0.3442-0.27499-0.0439-0.62154 0.0411-0.96172-0.0811-0.42177 0.0504-0.78863 0.4944-0.47531v1.1425c-0.2579 0.35185 0.0702 0.72264 0.46213 0.68178 0.44028 0.11139 0.86737 3e-3 1.3866-0.0671 0.3226-0.27124-0.029-0.64086 0.0561-0.98328v-0.79772c1.7287-0.14118 3.4572-0.28551 5.186-0.4257-0.0225 0.35649 0.0615 0.73889-0.0775 1.0649-0.0814 0.4076 0.38847 0.4163 0.67101 0.45444 0.35685 0.0624 0.72607-0.0182 1.0785-0.0759 0.30868-0.24925-8e-3 -0.60774 0.0724-0.92899 0.0382-0.30748-0.16941-0.84127 0.36765-0.68945 1.2246-0.10123 2.4493-0.20199 3.6738-0.30347-2e-3 0.3493 0.0206 0.70285-0.0517 1.0362 0.0193 0.41715 0.5376 0.28353 0.8222 0.35864 0.2852-0.0604 0.67367 0.0386 0.8604-0.22578 0.0437-0.29672-0.0826-0.57507-0.0355-0.88176-0.19049-0.71694 0.77605-0.36798 1.2026-0.5167 0.29563-0.0872 1.2119 0.0846 0.98054-0.3349-0.81206 0.0671-1.6241 0.13416-2.4362 0.20124v1.2785c0.22277 0.20925-0.31552 0.19716-0.49217 0.22198-0.11948-0.10841-0.0165-0.4651-0.0512-0.66802v-0.78776c-1.6981 0.13963-3.3961 0.27927-5.0942 0.4189v1.3995c0.2616 0.23702-0.25266 0.23698-0.43808 0.25345-0.35775 0.15063-0.18364-0.2927-0.22362-0.49695v-1.1002l-6.2673 0.5154v1.5941c0.2929 0.17172-0.2195 0.26558-0.42447 0.25011-0.32582 0.1036-0.48285 0.0187-0.39973-0.33449v-4.8786c-1.4417 0.0279-2.8834 0.055-4.3251 0.0829v1.4322c-0.15972 0.10643-0.15462 0.40218-0.0259 0.5287z"/><path d="m392.45 381.79c0.0721 0.0414 0.1591 0.0469 0.2339 0.0142"/></g></g><use transform="matrix(2.9005 0 0 2.9005 -234.68 -530.98)" width="100%" height="100%" fill="url(#be)" xlink:href="#logo"/><g fill-rule="evenodd" stroke="#000" stroke-width=".1"><path d="m56.462 275.15c-2.2931-1.3229-2.5135-2.0726-2.734-2.8222-4.8507 4.057-4.983 12.171-6.6146 13.406-6.7822 5.1325-7.0556 8.1139-7.0556 8.1139l7.8934-0.10114s8.7312-8.4978 8.5108-18.596z" fill="url(#s)"/><path d="m95.841 289.03c3.3676 2.8868 3.4826 4.8738 3.4836 4.8946-0.01278-0.12248-14.174-0.17688-26.747-0.20101 5.1787-3.3287 8.6633-11.557 9.1765-13.777 2.1341 1.4078 4.3811 2.7791 6.4761 4.0576 3.2135 1.9611 6.0694 3.7039 7.6112 5.0256z" fill="url(#q)"/><path d="m81.686 279.9c0.02262 0.0149 0.04526 0.0299 0.06791 0.0449-0.51318 2.2198-3.9977 10.448-9.1765 13.777-10.041-0.0193-19.07-0.0193-19.07-0.0193s1.5875-4.3973 7.3201-7.4524c0.01062-6e-3 0.02307-0.0156 0.03725-0.0294 0.06086-0.0221 0.12217-0.0518 0.18323-0.0905 2.7948-1.775 10.921-7.8425 13.392-13.12 1.2441-2.0994 2.0865-4.5975 2.1301-7.5303 0.0051-0.34036 1.5434-1.1024 1.5434-1.1024 0.39688 0.27697 3.1309 7.6853 3.5719 15.522z" fill="url(#r)"/><path d="m56.44 275.15c2.9545 2.9986 18.499 0.57326 20.13-9.6573 1.1906 10.627-13.097 16.845-13.097 16.845l-2.6458 4.3656-7.0815 6.9958-5.9531 0.0441s8.3383-7.5691 8.6469-18.593z" fill="url(#ag)"/><path d="m72.533 261.83s-0.42284 0.40816-0.22049 0.83785c0.14365 0.30504-0.38552 0.0184-0.35278 0.88194-0.38552 0.67988-0.62805 1.65 0.51848 1.9807 0.30868 0.66146 1.0249 0.5328 1.0249 0.5328s0.73896 0.48144 1.2347 0.0441c1.3784 0.87831 4.0128-1.1906 4.0128-1.1906s1.2902 0.79012 2.2162-0.26821c1.345 0.37483 4.6302-1.83 3.9574-3.8328-0.05479-0.13592 1.0424-0.90512 0.30868-2.4694-0.1596-0.34025 0.0889-0.80098-0.91468-1.6352 0.57326-1.4773-0.73896-2.2233-0.73896-2.2233s1.4886-1.1943 0.19844-2.9325c0.27594-0.79739-0.52917-1.3229-0.52917-1.3229s2.6017-1.8521 0.22049-3.7042c-0.23118-0.51858-3.8471-5.8984-7.2319-5.8649-0.82649-0.49653-1.0029-1.4667-2.4694-1.8962-1.6757-0.48507-1.3156 0.53619-2.5135 0.52917-1.951-0.0115-3.2191-2.1608-5.2917-1.9403-2.0726 0.22049-2.5576 1.2347-2.5576 1.2347s-1.8029-1.115-2.3372 0.61737c-0.45166 0.16492-1.3336-0.3422-1.2788 1.5434-0.36347 0.58385-3.1636 0.0988-2.436 2.1934-0.61736 0.15434-0.99219-0.37482-1.8521 1.4111-1.0583 0.48506-2.271 0.7717-2.3706 2.5691-0.47371 0.27517-1.532 0.95867-0.34142 2.8769-0.55122 0.41893-0.61736 0.61736-0.84921 2.1502-0.29732 0.42951-0.52846 0.74881-0.606 1.9068-0.7276 0.94809-1.4773 2.0946-0.88194 2.8222 0.50712 2.5797 1.6316 1.808 1.7198 2.9545 0.08819 1.1465 0.19844 0 0.42961-0.18697 0.01136-1.4446 0.71692-1.3123 0.03341-3.3628-0.35744-1.0723 0.8158-3.9467 1.4552-4.9609 0.20232-0.32089 1.2568-2.4033 1.3777-3.362 0.13794-1.0938 6.0042-6.3086 11.994-3.3073 3.0561 1.6529 5.0271 3.0868 5.7767 4.1451 0.74965 1.0583-0.35041 1.0929 0.26458 2.2049 0.40823 0.73818 0.1555 1.0791-0.14298 1.3776-0.70556 0.70556-1.4004 0.254-1.4004 0.254s-0.0979 0.83125 0.08819 1.5875c0.14365 0.58385 1.4666 0.98072 1.4666 0.98072s-0.7276 1.0363-0.36414 2.3707c-0.56191 0.87048-1.069 2.4139-0.61736 4.4538z" fill="url(#u)"/><path d="m61.004 286.36c0.41074-0.40115 2.1171-4.2545 2.1171-4.2545s6.9895-3.6184 11.646-9.0327c-3.6789 5.6289-8.426 10.699-13.763 13.287z" fill="url(#t)"/></g><g id="db" transform="translate(5.2917)"><use transform="translate(5.7776)" width="100%" height="100%" xlink:href="#y"/><path id="y" d="m97.406 288.88c0.04121-0.16308-0.01828-0.2815-0.1919-0.23583h-4.8948v0.27767c0.43456 0.0128 0.95296 0.13268 1.1616 0.55824 0.10953 1.155 0.19842 2.6166-1.2209 2.5462-0.11268 0.11375-0.10302 0.46654 0.13615 0.37246h6.0198v-1.7662c-0.13573-0.13415-0.27186-0.47332-0.40253-0.16299-1.0982 0.83991-1.8553 2.4118-2.0378 0.64527 0.01056-0.41535-0.02759-0.83558 0.0321-1.2476 0.09578-0.47922 0.49689-0.87737 0.98379-0.94847 0.13627-0.0276 0.27567-0.0387 0.41448-0.0387z" fill="#000001" fill-rule="evenodd"/><path d="m89.738 288.93c-0.38554 0.0302-0.49766 0.48037-0.54917 0.79675-0.08927 0.61849-0.06849 1.255 0.04757 1.8682 1.0443 1.3006 1.5315-2.6561 0.50161-2.665zm3.1171 1.5932c0.02856 0.63392-0.36909 1.2487-0.95278 1.4936-0.85567 0.40688-1.8306 0.39901-2.7573 0.37431-0.69975-0.03-1.4415-0.11914-2.0298-0.53075-1.3593-1.4649 0.10231-3.0563 1.6749-3.3975 1.2647-0.0372 3.0321 0.14534 3.7728 1.0933 0.21317 0.27436 0.29268 0.62517 0.29214 0.96705z" fill="#000001" fill-rule="evenodd"/><path d="m82.666 288.93 0.02518 2.9222c1.3306-0.40656 1.5484-2.9666-0.02518-2.9222zm3.5639 1.5014c0.02881 0.70297-0.30898 1.4618-0.97992 1.7549-0.61832 0.30048-1.3163 0.19431-1.9798 0.21293h-4.2012v-0.34089c1.7424-0.0401 1.5115-3.1474 0.25801-3.1479-0.25991-0.0435-0.09237-0.37004 0.12407-0.25203 1.9226-0.0342 5.9275-0.99957 6.683 1.1487 0.06801 0.20053 0.09582 0.41306 0.09582 0.6243z" fill="#000001" fill-rule="evenodd"/><path d="m114.25 289.68c0.0664-0.56365-0.66829-0.86057-1.0776-0.68364v1.4148c0.486 0.0847 1.12-0.14627 1.0776-0.7312zm-10.478 2.4547c0.68306-0.0359 1.0611-0.70483 1.3891-1.221 0.37782-0.72578 0.66747-1.4932 0.95835-2.2568h1.9972c0.74759 1.7004 2.7923 5.4282 2.7746 1.2519-4e-3 -0.64455-0.6775-1.0082-1.2559-0.97394-0.11867-0.0486-0.0949-0.40669 0.14358-0.28462 1.927 3e-3 3.8547-7e-3 5.7811 5e-3 0.52006 0.025 1.1859 0.26628 1.2303 0.87055-0.16648 1.3673-2.3513 0.9702-1.4563 1.0554 0.58956 0.0201 1.1662 0.42499 1.2628 1.0283-0.11393 0.55605 0.55008 0.49458 0.79797 0.5511 0.11401 0.3915-0.40088 0.22869-0.63339 0.30906-0.79237 0.0584-1.6826 0.17869-2.3845-0.27937-0.55103-0.30945-0.1556-1.1037-0.70479-1.3971-0.28914-0.19624-0.6055-0.19345-0.49409 0.20375-0.21413 1.2232 1.1553 0.85327 0.96724 1.4417h-8.0377c0.0898-0.53893 0.82281-0.56817 0.33401-1.0717h-1.0854c-0.13649 0.53335 0.6178 0.56197 0.59379 0.94897 0.0606 0.23907-0.25974 0.0971-0.40026 0.13504h-1.7838c2e-3 -0.10554 4e-3 -0.21113 6e-3 -0.31664z" fill="#000001" fill-rule="evenodd"/><path d="m122.76 289.98c0.18261 0.0588 0.22137-0.0637 0.19713-0.21357v-1.0121c-0.28399-0.0923-0.44054 0.23068-0.71817 0.0863-1.5028-1.0251-6.3175 0.83705-4.1466 2.1328 0.41459 0.24197 0.89992 0.37104 1.3786 0.37294 0.4832-0.0277 1.0071-0.057 1.4452 0.18263-2.2272 1.6834-3.2569-1.1333-3.2978 0.9247h0.36247c0.12877-0.17544 0.23775-0.4024 0.46424-0.2237 0.78772 0.27073 1.6345 0.30035 2.4598 0.28306 0.71466-0.0306 1.4628-0.14898 2.0652-0.55989 0.28079-0.20081 0.46851-0.54856 0.39867-0.89818-0.046-0.49194-0.44613-0.87894-0.9013-1.0241-0.36025 0.49126-4.5319-1.3143-1.5609-1.0301 0.70527 0.10736 1.3162 0.53403 1.8535 0.97916z" fill="#000001" fill-rule="evenodd"/><path id="z" d="m97.058 288.45c0.04121-0.16308-0.01828-0.2815-0.1919-0.23583h-4.8948v0.27767c0.43456 0.0128 0.95296 0.13268 1.1616 0.55824 0.12855 0.34027 0.04526 0.70936 0.06104 1.063-0.0023 0.38906 0.05366 0.8459-0.2593 1.1414-0.26774 0.25747-0.6596 0.36481-1.0226 0.34176-0.11268 0.11375-0.10302 0.46654 0.13615 0.37246h6.0198v-1.7662c-0.13573-0.13415-0.27186-0.47332-0.40253-0.16299-0.52923 0.65391-1.1944 1.2253-1.9955 1.5114-0.10324-0.22648-9e-3 -0.58971-0.04234-0.86615 0.01056-0.41535-0.02759-0.83558 0.0321-1.2476 0.09578-0.47922 0.49689-0.87737 0.98379-0.94847 0.13627-0.0276 0.27567-0.0387 0.41448-0.0387z" fill="url(#an)" fill-rule="evenodd" stroke="#000" stroke-miterlimit="10" stroke-width=".1"/><use transform="translate(5.7768)" width="100%" height="100%" fill="url(#am)" stroke-miterlimit="10" stroke-width=".1" xlink:href="#z"/><path d="m89.39 288.49c-0.38554 0.0302-0.49766 0.48037-0.54917 0.79675-0.08927 0.61849-0.06849 1.255 0.04757 1.8682 0.01814 0.32852 0.41283 0.71712 0.70413 0.40522 0.25739-0.28796 0.27144-0.70244 0.32282-1.0666 0.03086-0.5107 0.0385-1.0316-0.06336-1.535-0.04776-0.22378-0.20518-0.47589-0.46198-0.46853zm3.1171 1.5932c0.02856 0.63392-0.36909 1.2487-0.95278 1.4936-0.85567 0.40688-1.8306 0.39901-2.7573 0.37431-0.69975-0.03-1.4415-0.11914-2.0298-0.53075-0.65831-0.4975-0.78389-1.5121-0.35954-2.1978 0.35771-0.53317 1.0007-0.77672 1.6065-0.89753 0.79815-0.14461 1.6204-0.14779 2.4242-0.0492 0.65116 0.1 1.3634 0.28371 1.7766 0.8404 0.21317 0.27436 0.29268 0.62517 0.29214 0.96705z" fill="url(#al)" fill-rule="evenodd" stroke="#000" stroke-miterlimit="10" stroke-width=".1"/><path d="m82.318 288.49v3.1488c0.44692-0.0462 0.95887-0.32125 1.0108-0.8126 0.0091-0.56527 0.01395-1.132-0.0025-1.6965-0.0782-0.45808-0.59289-0.66002-1.0083-0.63971zm3.5639 1.5014c0.02881 0.70297-0.30898 1.4618-0.97992 1.7549-0.61832 0.30048-1.3163 0.19431-1.9798 0.21293h-4.2012v-0.34089c0.33385-2e-3 0.7416 0.0597 0.96913-0.25007 0.23021-0.22545 0.3433-0.5439 0.31157-0.86338 0.0011-0.46561 0.04762-0.94015-0.04162-1.3996-0.12149-0.41473-0.56021-0.67099-0.98107-0.6348-0.25991-0.0435-0.09237-0.37004 0.12407-0.25203 1.6833 3e-3 3.367-6e-3 5.0502 4e-3 0.68664 0.0625 1.4127 0.45453 1.6328 1.1447 0.06801 0.20053 0.09582 0.41306 0.09582 0.6243z" fill="url(#ak)" fill-rule="evenodd" stroke="#000" stroke-miterlimit="10" stroke-width=".1"/><path d="m113.9 289.25c0.0664-0.56365-0.66829-0.86057-1.0776-0.68364v1.4148c0.486 0.0847 1.12-0.14627 1.0776-0.7312zm-8.7309 1.3578h0.92001c-0.13386-0.36736-0.26771-0.73472-0.40157-1.1021-0.17281 0.36736-0.34563 0.73472-0.51844 1.1021zm-1.7471 1.0968c0.68307-0.0359 1.0611-0.70483 1.3891-1.221 0.37781-0.72578 0.66746-1.4932 0.95834-2.2568h1.9972c0.37121 1.1216 0.9925 2.1602 1.7544 3.0597 0.32024 0.61057 1.0143 0.26651 1.0033-0.33596 0.0434-0.48747 0.0134-0.98179 0.0169-1.4719-4e-3 -0.64455-0.67749-1.0082-1.2559-0.97394-0.11867-0.0486-0.0949-0.40669 0.14358-0.28462 1.927 3e-3 3.8547-7e-3 5.7811 5e-3 0.52005 0.025 1.1859 0.26628 1.2303 0.87055 0.0983 0.59183-0.50515 0.95816-1.0215 0.98434-0.21576 0.0346-1.076 0.0123-0.43475 0.0711 0.58956 0.0201 1.1662 0.42499 1.2628 1.0283-0.11393 0.55605 0.55008 0.49458 0.79797 0.5511 0.11401 0.3915-0.40088 0.22869-0.63339 0.30906-0.79237 0.0584-1.6826 0.17869-2.3845-0.27937-0.55102-0.30945-0.1556-1.1037-0.70479-1.3971-0.28914-0.19624-0.6055-0.19345-0.49409 0.20375-1e-3 0.3383-0.0509 0.75564 0.30604 0.94757 0.23868 0.22706 0.79638 0.0435 0.66121 0.49415h-8.0377c-0.144-0.4474 0.33942-0.26383 0.52195-0.55104 0.0625-0.14566 0.03-0.54914-0.18793-0.52063h-1.0854c-0.13649 0.53335 0.6178 0.56197 0.5938 0.94897 0.0606 0.23907-0.25975 0.0971-0.40027 0.13504h-1.7838c2e-3 -0.10554 4e-3 -0.21113 6e-3 -0.31664z" fill="url(#aj)" fill-rule="evenodd" stroke="#000" stroke-miterlimit="10" stroke-width=".1"/><path d="m122.42 289.55c0.18262 0.0588 0.22137-0.0637 0.19713-0.21357v-1.0121c-0.28399-0.0923-0.44053 0.23068-0.71817 0.0863-1.23-0.19979-2.5328-0.34678-3.7321 0.0851-0.47453 0.1653-0.95989 0.54688-0.97815 1.0887-0.026 0.39841 0.21254 0.77885 0.56369 0.95905 0.41459 0.24197 0.89993 0.37104 1.3786 0.37294 0.4832-0.0277 1.0071-0.057 1.4452 0.18263 0.23704 0.13381 0.20137 0.49425-0.0827 0.53235-0.35778 0.12297-0.74546 0.10781-1.1186 0.10443-0.66827-0.0457-1.3232-0.34889-1.7658-0.85597h-0.33069v1.1439h0.36248c0.12877-0.17544 0.23774-0.4024 0.46423-0.2237 0.78772 0.27073 1.6345 0.30035 2.4598 0.28306 0.71467-0.0306 1.4628-0.14898 2.0652-0.55989 0.28078-0.20081 0.4685-0.54856 0.39866-0.89818-0.046-0.49194-0.44612-0.87894-0.9013-1.0241-0.63498-0.24354-1.3249-0.23683-1.994-0.26386-0.2771-5e-3 -0.58043-0.28635-0.41253-0.56804 0.19375-0.2585 0.55914-0.22606 0.84559-0.1982 0.70527 0.10736 1.3162 0.53403 1.8535 0.97916z" fill="url(#ai)" fill-rule="evenodd" stroke="#000" stroke-miterlimit="10" stroke-width=".1"/></g><g id="dc" transform="translate(-2.6458)"><path d="m38.695 288.44-6.0817-0.25176-0.02518 2.0279c0.1088 0.15487 0.33599 0.45886 0.41598 0.10261 0.34768-0.53808 0.6863-1.0865 1.1111-1.5686 0.62127 0.69653-0.04061 3.2587-1.0765 3.329-0.16272 0.28908 0.20544 0.27784 0.39383 0.26176h4.8359c-0.04494-0.70793-1.393-0.65346-1.2902-1.4701-0.0049-0.67276 8.47e-4 -1.3455-0.0015-2.0183 0.62693 0.23251 1.0741 1.4068 1.4228 1.9825 0.48192-0.10522 0.23986-0.64306 0.29549-0.98668 2.6e-5 -0.46943-6.8e-5 -0.93898 5.9e-5 -1.4083z" fill="#000001"/><path d="m45.224 288.45c0.03792 0.42656 0.6194 0.37891 0.81969 0.70558 0.74475 0.84068-0.05161 2.7025-0.78317 2.9068-0.30372 0.16892 0.0997 0.35661 0.29661 0.29451h2.5192v-0.34859c-0.56815-0.0251-1.2043-0.39318-1.2713-1.0042 0.0084-0.35231-0.10412-0.73115 0.04056-1.0653 0.78863 0.81313 1.5872 1.6165 2.3795 2.426h1.9957c0.01157-1.0403-0.02642-2.0815 0.02523-3.1212-0.0077-0.33433 0.54072-0.48071 0.48783-0.74056-0.21444-0.0876-0.45589-0.0365-0.68225-0.061h-1.504c0.05948 0.44392 0.72469 0.26219 0.8501 0.67543 0.7892 1.6398 0.07973 0.88275-0.68894 0.24945-1.1352-1.3814-2.7859-0.91698-4.4848-0.91698z" fill="url(#as)"/><path d="m38.769 288.44c0.61913 0.93271 1.2946 2.761-0.06269 3.5594-0.28767-0.15774-0.64004 0.33832-0.21493 0.35581 2.204-8.7e-4 4.4085-8e-5 6.6127-3.3e-4v-1.4395c-0.14127-0.35327-0.56032-0.2796-0.74753-0.0202-1.2151 0.54043-2.0528 1.8738-2.2702 0.4266v-0.88093c0.7079 0.22818 1.5687 1.557 1.5312 0.26924v-1.195c-0.51567-0.24742-1.0896 0.55779-1.5236 0.5503v-1.301c0.90836 0.42165 1.8167 0.84331 2.7251 1.265 0.3127-0.12366 0.24657-0.49872 0.2474-0.76762v-0.82163h-6.2975z" fill="#000001"/><path id="lt" d="m38.347 288h-6.1069v1.7762c0.1088 0.15486 0.33599 0.45886 0.41598 0.10261 0.34768-0.53808 0.6863-1.0865 1.1111-1.5686 0.28349-0.15187 0.19099 0.27885 0.2018 0.44731v1.9078c-0.14094 0.56382-0.70148 0.97766-1.2783 0.97394-0.16272 0.28907 0.20544 0.27784 0.39383 0.26175h4.8359c0.05128-0.40782-0.51499-0.30033-0.72849-0.51388-0.34492-0.181-0.62547-0.5498-0.56172-0.95621-0.0049-0.67276 8.46e-4 -1.3455-0.0015-2.0183 0.31797-0.17514 0.36048 0.36992 0.54039 0.52591 0.29415 0.48551 0.58829 0.97103 0.88243 1.4566 0.48192-0.10521 0.23986-0.64306 0.29549-0.98667 2.6e-5 -0.46943-6.7e-5 -0.93898 6e-5 -1.4083z" fill="url(#ar)" stroke="#000" stroke-miterlimit="10" stroke-width=".1"/><path id="ln" d="m48.366 288.01h-3.4898c0.03792 0.42657 0.6194 0.37891 0.81969 0.70558 0.21534 0.15699 0.35055 0.40704 0.30629 0.67491-8e-3 0.34155 0.01626 0.68708-0.01255 1.0261-0.13354 0.541-0.49786 1.0891-1.0769 1.2058-0.30372 0.16893 0.0997 0.35662 0.29661 0.29452h2.5192v-0.3486c-0.56815-0.0251-1.2043-0.39317-1.2713-1.0042 0.0084-0.3523-0.10412-0.73114 0.04056-1.0653 0.78863 0.81314 1.5872 1.6165 2.3795 2.426h1.9957c0.01157-1.0403-0.02642-2.0815 0.02523-3.1212-0.0077-0.33432 0.54072-0.4807 0.48783-0.74056-0.21444-0.0876-0.45589-0.0365-0.68225-0.061h-1.504c0.05948 0.44392 0.72469 0.26219 0.8501 0.67543 0.26095 0.32598 0.36226 0.75377 0.35548 1.1651-0.39476-0.24824-0.68425-0.62392-1.0444-0.9157-0.33167-0.30565-0.66336-0.61128-0.99504-0.91694z" fill="url(#aq)" stroke="#000" stroke-miterlimit="10" stroke-width=".1"/><path id="le" d="m38.421 288c-0.0608 0.4119 0.60529 0.36027 0.62324 0.78439 0.24067 0.56625 0.21055 1.2123 0.09471 1.8043-0.10197 0.41135-0.34677 0.84723-0.78064 0.9707-0.28767-0.15774-0.64004 0.33831-0.21493 0.35581 2.204-8.7e-4 4.4085-8e-5 6.6127-3.4e-4v-1.4395c-0.14127-0.35328-0.56032-0.27961-0.74753-0.0202-0.68366 0.45273-1.3814 0.9213-2.1831 1.1351-0.19031-0.185-0.04492-0.47292-0.08706-0.70848v-0.88093c0.49945 0.20055 1.0137 0.44742 1.3427 0.89071 0.29518-0.0445 0.1636-0.41139 0.18851-0.62147v-1.195c-0.32405-0.30617-0.56795 0.2109-0.81878 0.35541-0.1714 0.10794-0.60413 0.38619-0.7048 0.19488v-1.301c0.90836 0.42165 1.8167 0.84331 2.7251 1.265 0.3127-0.12366 0.24657-0.49871 0.2474-0.76761v-0.82163h-6.2975z" fill="url(#ap)" stroke="#000" stroke-miterlimit="10" stroke-width=".1"/></g><g transform="translate(1.3229)"><use transform="matrix(-1 0 0 1 130.57 .074356)" width="100%" height="100%" xlink:href="#da"/><g id="da" transform="matrix(.99891 0 0 1.4876 -2.9367 -158.08)"><path d="m61.917 301.81l-0.75262-1.5508s-0.56561 0.29192-1.2908 0.31016c-0.72528 0.0182-1.0719-0.20525-1.4368-0.20525s-1.0263 0.23718-0.98982 0.68418c0.03651 0.447 0.26 0.18246 0.67966 0.73438 0.27933 0.36738 0.1735 1.2721 0.8484 1.186 0.42877-0.0547 0.48352-0.45615 0.42877-0.66598-0.04583-0.17572-0.02279 0.19361 0.79368 0.073 0.80278-0.1186 1.7196-0.56561 1.7196-0.56561z" fill="url(#ao)" fill-rule="evenodd" stroke="#000" stroke-width=".1"/><path d="m59.416 302.32-0.74978-1.283s-0.13329 0.64981-0.84975 0.46653" fill="none" stroke="#000" stroke-width=".1"/></g><path d="m72.496 289.26c0.31226 0.99061 0.55213 1.0499 1.3484 1.2443 0.17743 0.0433-0.69686 1.2391-0.99703 2.3425h-14.933c-0.13215-1.7055-1.2765-2.5419-1.2765-2.5419 0.67889 0.0203 0.83834-0.129 1.4672-1.1331 0.06635 0.34917 0.17006 0.88828 0.25971 1.2281 4.6927 0.0908 13.689 0.0543 13.689 0.0543s0.38319-0.69019 0.44194-1.1942z" fill="url(#af)" fill-rule="evenodd" stroke="#000" stroke-width=".1219"/></g><text id="name" x="66.703987" y="292.08502" fill="#000000" font-family="'Times New Roman'" font-size="1.5px" font-weight="bold" stroke-width=".3" text-align="center" text-anchor="middle" xml:space="preserve">-NAME GOES HERE-</text><g id="org" transform="translate(-80.332 28.8)"><g transform="matrix(.21249 0 0 -.21249 24.491 313.58)"><use transform="translate(26.277)" width="100%" height="100%" xlink:href="#ac"/><path d="m395.61 308.83c1.0544-0.81246 2.6698-1.2284 3.8109-0.34331 1.243 0.98057 1.4877 2.7356 1.2696 4.213-0.17836 1.3557-1.2548 2.584-2.6517 2.7288-0.85698 0.1289-1.7207-0.17602-2.4288-0.64463m2.0509 1.8033c1.147 0.65133 2.5731 0.40571 3.7242-0.10176 1.6025-0.71622 2.6123-2.528 2.342-4.2684-0.23448-2.1154-1.9656-3.7154-3.828-4.5294-0.8636-0.36987-1.7748-0.69124-2.7118-0.78939-0.49024-0.10669-1.3108 0.38006-1.5772 0.18391 0.0168-1.143-0.0392-2.2895 0.0405-3.4295 0.10708-0.85602 1.1363-0.82178 1.7836-0.89943 0.48243 0.12664 0.34309-0.31961 0.35815-0.62447-0.11171-0.13235-0.46928-0.0188-0.67552-0.0567h-6.2397c0.0551 0.26666-0.18135 0.8011 0.29799 0.67753 0.69237-6e-3 1.6297 0.25066 1.5325 1.1242 0.0215 3.4802 7e-3 6.9611 8e-3 10.442 0.15764 0.84108-0.60133 1.3041-1.3495 1.2662-0.35204-0.13943-0.34218 0.63045-0.12783 0.65328 1.4782 0.21483 2.929 0.58125 4.372 0.96078v-1.6295"/><use transform="translate(70.024)" width="100%" height="100%" xlink:href="#f"/><g><path d="m342.67 307.16c-0.28473 1.3685 1.8244 0.29579 2.0021 1.5647 0.30023 0.92096 0.0512 1.9098 0.11979 2.8623-0.0151 2.4137-0.0296 4.8274-0.0447 7.2411-0.67365-0.6739-0.95518-1.7676-1.4884-2.5951-1.5551-2.9739-3.1102-5.9478-4.6653-8.9217-1.1824-0.21543-1.1301 1.4928-1.726 2.1722-1.4931 3.0352-2.9862 6.0704-4.4794 9.1056-0.2882-0.61729-0.10847-1.466-0.22735-2.1737-0.13732-2.3863-0.34242-4.7804-0.28534-7.1684 0.0772-1.3224 1.4652-1.1948 2.3634-1.4541 0.4662-0.86834-0.68543-0.60336-1.1904-0.63302h-4.9998c-0.29428 1.3539 1.6874 0.39664 1.9975 1.5515 0.45835 0.81763 0.35735 1.7983 0.53089 2.6964 0.26359 2.4697 0.47328 4.946 0.6588 7.4222 0.20258 1.0932-0.83897 1.87-1.8537 1.6722-0.86026 0.0781-0.44209 1.1666 0.32097 0.7818h4.2364c1.7967-3.332 3.5935-6.664 5.3902-9.996 1.8321 3.332 3.6643 6.664 5.4964 9.996h4.9969c0.26552-1.4114-1.9189-0.24066-2.1293-1.5436-0.31102-0.94539-2e-3 -1.9572-0.0594-2.9347 0.0696-2.5839 0.14022-5.1701 0.24637-7.7513 0.12681-1.2039 1.6458-0.99234 2.2698-1.3527 6e-3 -0.18105-0.0486-0.36114-0.013-0.5418"/><path id="g" d="m352.93 313.44c1.2903 7e-3 2.5814 0.0121 3.8701 0.0841 0.49732 0.21965 0.31495 0.85256 0.1673 1.2471-0.21299 0.90142-1.1794 1.5338-2.0887 1.331-1.1964-0.27914-1.8067-1.5404-1.9487-2.6622zm6.9415-4.2593c-1.3737-1.62-3.5871-2.5974-5.7133-2.1973-1.6625 0.23496-3.2735 1.2899-3.8702 2.9045-0.74188 1.8929-0.0801 4.1845 1.4828 5.4627 1.4798 1.3216 3.6453 2.0402 5.579 1.3826 1.3234-0.43643 2.5005-1.5733 2.6347-3.0107 0.1227-0.64567-0.50127-1.0185-1.074-0.93387-1.9661-0.16081-3.9402-0.24194-5.9094-0.31928-0.45484-0.17383-0.0527-0.77235-0.0519-1.1288 0.30919-1.206 1.2777-2.2424 2.5115-2.5104 1.3624-0.34528 2.8595 0.0214 3.9649 0.87208"/><path id="f" d="m366.47 307.16c-1.0151-0.42453-2.2559-0.32177-3.1757 0.28355-0.73278 0.54923-0.95853 1.5194-0.89594 2.3918-0.0112 1.9692 5e-5 3.9384-4e-3 5.9076h-1.7102c-0.27149 0.40125 0.44309 0.81292 0.72653 0.9777h0.98366v1.5869c0.84137 0.53563 1.6827 1.0713 2.5241 1.6069 0.41332 0.0167 0.38721-0.32885 0.3682-0.62606v-2.5677h2.7082c0.41534-0.32744 0.0819-1.1354-0.46233-0.9777h-2.2459c0.0149-1.9758-0.0302-3.9532 0.0245-5.928 0.0542-0.69102 0.53435-1.4393 1.294-1.4478 0.54906-0.13075 1.2372 0.25705 1.656 0.18604 0.069-0.19643 0.13801-0.39287 0.20702-0.58931"/><path id="ad" d="m373.81 314.68c0.64047 0.88862 1.384 1.8109 2.4448 2.2003 0.8034 0.27436 1.9188 5.4e-4 2.2394-0.85722 0.23132-0.77182-0.41885-1.5321-1.1452-1.7129-0.55768-0.23085-0.93389 0.36621-1.4412 0.46455-0.69784 0.22497-1.4204-0.1877-1.8057-0.76272-0.19411-0.26709-0.40365-0.55259-0.3448-0.89768 5e-3 -1.3832-0.0114-2.7668 0.01-4.1498-0.0483-0.51705 0.31604-0.99311 0.84825-1.0177 0.41257-0.11538 0.97131-0.0388 1.2982-0.18791v-0.59726h-6.7838v0.6518c0.51183 0.0731 1.1306 0.021 1.5136 0.42753 0.31581 0.50434 0.19704 1.1306 0.22178 1.6984-5e-3 1.515 0.0114 3.0304-9e-3 4.5451 0.0276 0.44161-0.22063 0.90408-0.68948 0.97116-0.23827 0.17127-0.88519-0.0419-0.79992 0.37667-0.0752 0.32201 0.0899 0.42609 0.41286 0.39244 1.3451 0.15745 2.6778 0.42303 3.9782 0.8016v-2.3464"/><path id="ac" d="m382.04 312.48c0.0133-1.4769 0.32572-3.1044 1.4436-4.159 0.89867-0.86876 2.6018-0.86421 3.322 0.2277 0.66565 1.0492 0.67285 2.3533 0.63639 3.556-0.0812 1.3019-0.38376 2.7717-1.4804 3.6078-0.87872 0.65983-2.2633 0.63002-2.9944-0.24131-0.72275-0.80518-0.9231-1.9435-0.92717-2.9912zm8.7042-0.3693c0.0349-1.5554-0.71719-3.1038-1.9966-3.9989-1.8788-1.3453-4.4246-1.5225-6.5774-0.79808-1.6942 0.56636-3.1497 2.028-3.379 3.8459-0.22341 1.6266 0.46981 3.3282 1.7625 4.3396 2.1736 1.7348 5.4353 1.9748 7.8337 0.56383 1.3807-0.81313 2.378-2.3213 2.3568-3.9524z"/><path d="m417.22 307.16v0.6518c0.56147 0.10002 1.3072 0.0291 1.6454 0.58372 0.23708 0.663 0.11121 1.3857 0.14254 2.0772-5e-3 3.185 0.0111 6.3704-9e-3 9.5552 0.096 0.68741-0.53092 1.098-1.1561 1.0701-0.40909-0.0473-0.60763 0.0881-0.51802 0.48793 0.0364 0.35506 0.72123 0.12484 1.0092 0.26534 1.1981 0.15855 2.3897 0.3707 3.5658 0.64952 4e-3 -4.4564-8e-3 -8.913 6e-3 -13.369-0.0656-0.59139 0.28878-1.2143 0.93391-1.2229 0.33105-0.13005 1.027 0.11607 0.87557-0.42996v-0.31861"/><path id="e" d="m425.82 319.92c5e-3 0.92017 1.0174 1.4828 1.8532 1.3835 0.80032-0.0269 1.6317-0.73468 1.4682-1.588-0.21912-1.0039-1.4964-1.4036-2.3731-1.0264-0.50194 0.19931-0.94905 0.66382-0.94824 1.2309zm-1.341-12.754v0.6518c0.52001 0.0752 1.173 7e-3 1.5391 0.4546 0.29637 0.58175 0.16802 1.2631 0.19629 1.8951-0.0104 1.4772 0.0231 2.9556-0.0213 4.4319 0.0415 0.63727-0.59308 0.93855-1.1434 0.94896-0.42537-0.0957-0.36971 0.22741-0.35932 0.51314 0.047 0.33719 0.70769 0.12527 0.99103 0.26165 1.1544 0.15897 2.3018 0.37827 3.4263 0.68582 5e-3 -2.6416-0.0112-5.2835 9e-3 -7.9249-0.0227-0.47086 0.17049-1.0353 0.70221-1.1127 0.28281-0.21423 1.0516 0.08 1.0496-0.33987v-0.46555"/><path id="ab" d="m445.25 312.35c-0.80913-0.36878-1.6573-0.65659-2.4419-1.0755-0.54003-0.2849-0.82348-0.924-0.68907-1.5176 0.13945-1.0034 1.3088-1.5653 2.2261-1.2615 0.32319 0.0865 0.62854 0.23421 0.9049 0.42187m2.236-2.0206c-0.87582-0.0254-1.8362 0.43314-2.1308 1.3036-0.90291-0.46667-1.7668-1.0744-2.7723-1.2952-1.396-0.0849-2.9543 0.64966-3.4243 2.038-0.27488 0.78619-0.0688 1.7782 0.67528 2.233 0.9355 0.6001 2.0621 0.75159 3.0985 1.1043 0.78444 0.25331 1.5992 0.45835 2.3177 0.87346 0.0151 0.81893 0.0156 1.7452-0.61776 2.3566-0.65771 0.63846-1.9194 0.6224-2.4184-0.20846-0.34354-0.45464-0.42514-1.037-0.69186-1.5263-0.42431-0.5185-1.2283-0.36987-1.7395-0.0662-0.46315 0.20904-0.78115 0.86487-0.32426 1.2454 0.81592 0.69309 1.8408 1.0781 2.8263 1.4655 0.72253 0.24275 1.4597 0.5164 2.2254 0.55605 1.2396-0.0107 2.615-0.49193 3.2222-1.6494 0.47191-0.96826 0.29785-2.0678 0.33229-3.1078 0.01-0.91033-0.0213-1.8222 0.0189-2.7314 9e-3 -0.5354 0.4544-1.0665 1.0282-0.93114 0.31186-0.0535 0.78139 0.41057 0.84165-0.0632 0.0541-0.13396 0.1081-0.26791 0.16215-0.40186"/><path id="aa" d="m458.03 307.16v0.6518c0.70383-0.0521 1.5537 0.36084 1.3955 1.1896 0.0489 1.4944 0.0205 2.991 0.0152 4.4856-0.01 0.76776-0.40664 1.5923-1.1879 1.8267-0.86329 0.30124-1.7987 0.0387-2.5747-0.3752-0.64072-0.12018-0.56136-0.78599-0.53873-1.2784-6e-5 -1.6801-0.0155-3.3618 0.0172-5.0409 0.0712-0.71589 0.9229-0.71485 1.3722-0.88413 0.11814-0.44153-0.0817-0.70583-0.53337-0.57519h-5.5654v0.6518c0.61093 0.10259 1.5677 4.7e-4 1.7478 0.77441 0.14222 0.77249 0.0333 1.5658 0.0645 2.3479-8e-3 1.3072 0.0376 2.6189-0.0415 3.9229-0.0893 0.87172-1.5109 0.35343-1.4414 1.1539 0.21307 0.37072 0.82995 0.19302 1.2122 0.33785 1.066 0.17069 2.1246 0.39103 3.1661 0.67602v-1.6512c1.2498 0.69185 2.4816 1.6916 3.993 1.6091 1.2639-0.0161 2.5829-0.74078 2.9828-1.9945 0.38805-1.1644 0.16905-2.4089 0.23113-3.611 0.0139-0.97925-0.0593-1.9702 0.0747-2.9411 0.17789-0.75774 1.3301-0.30232 1.5124-0.85032-0.0159-0.14303-0.026-0.28268-0.0108-0.42579"/></g></g><g transform="matrix(.21249 0 0 -.21249 19.728 313.58)"><use transform="matrix(.53701 0 0 .57135 220.89 117.23)" width="100%" height="100%" xlink:href="#e"/><use transform="matrix(.55681 0 0 .57718 237.22 115.42)" width="100%" height="100%" xlink:href="#g"/><use transform="matrix(.54364 0 0 .57464 237.55 116.21)" width="100%" height="100%" xlink:href="#ad"/><use transform="matrix(.53701 0 0 .57135 193.89 117.21)" width="100%" height="100%" xlink:href="#e"/><use transform="matrix(.56362 0 0 .57358 159.68 116.54)" width="100%" height="100%" xlink:href="#aa"/><use transform="matrix(.55681 0 0 .57718 199.29 115.42)" width="100%" height="100%" xlink:href="#g"/><use transform="matrix(.5508 0 0 .5754 141.81 115.98)" width="100%" height="100%" xlink:href="#ab"/><use id="o" transform="translate(10.891 -.009791)" width="100%" height="100%" xlink:href="#p"/><use id="p" transform="matrix(.55182 0 0 .57657 179.69 115.61)" width="100%" height="100%" xlink:href="#f"/><use transform="translate(62.682)" width="100%" height="100%" xlink:href="#o"/><g><path d="m377.49 298.96c-0.1992 0.6838-0.63047 1.3932-1.3604 1.5864-0.70799 0.19015-1.6077 0.0993-2.0664-0.53859-0.41226-0.57342-0.24154-1.4392 0.33863-1.8348 1.0368-0.77297 2.415-0.95635 3.3752-1.851 0.60723-0.52315 0.80072-1.4422 0.46125-2.1671-0.44606-0.97299-1.5277-1.4545-2.5378-1.5869-1.0194-0.13383-2.0724 9e-3 -3.0212 0.40427-0.21319 0.64325-0.30199 1.3207-0.4113 1.9876 0.15217 0.0333 0.30433 0.0666 0.4565 0.0999 0.30134-0.92364 0.98911-1.8118 1.9834-2.0181 0.70623-0.13892 1.5709-0.0504 2.0442 0.55596 0.41854 0.55958 0.3403 1.4332-0.21601 1.8753-0.99843 0.84292-2.3987 1.023-3.3562 1.9294-0.57542 0.49985-0.802 1.3554-0.51317 2.0662 0.37073 0.95073 1.404 1.4376 2.3623 1.5583 0.89172 0.12807 1.7942-0.0222 2.6588-0.24341 0.082-0.58833 0.18787-1.1731 0.2745-1.7607"/><path d="m414.16 300.52c-0.45963-0.039-1.0986-0.0533-1.2873-0.56704-0.23106-1.3515-0.0593-2.7318-0.16505-4.0937-0.076-1.0505-0.52112-2.1436-1.457-2.7058-1.219-0.73281-2.7622-0.77188-4.1003-0.37238-0.94293 0.27313-1.7258 1.044-1.9422 2.0119-0.23827 0.94407-0.12724 1.9244-0.15316 2.8872-0.0132 0.74083 0.0332 1.4851-0.0398 2.2228-0.0724 0.59551-0.7797 0.57095-1.2294 0.61288-0.0757 0.021-0.12789 0.43083 0.052 0.3691h3.9581c0.0551-0.30741-0.0375-0.47062-0.39721-0.39115-0.51685 0.0468-0.97728-0.33583-0.90473-0.87547-0.0101-1.1927-0.0164-2.3863 3e-3 -3.5788 0.0391-0.97565 0.44195-2.0493 1.3737-2.4955 0.84742-0.39359 1.8758-0.39757 2.7346-0.0367 0.94175 0.41419 1.352 1.4744 1.4398 2.4361 0.0748 0.97727 0.0414 1.9605 0.0222 2.9396-0.0571 0.45146 0.0194 0.9958-0.31493 1.3493-0.34177 0.29572-0.93078 0.18445-1.2466 0.34115 6.9e-4 0.16551-0.0562 0.3886 0.18706 0.31155h3.4667"/><path d="m432.42 297.88c-0.39578-0.0304-0.84316-0.12642-1.0622-0.4956-0.47702-0.76474-0.85978-1.5843-1.2721-2.385-0.4009-0.80344-0.78957-1.613-1.1669-2.4277h-0.4417c-0.73835 1.5935-1.4846 3.1846-2.2885 4.7461-0.15252 0.3165-0.48434 0.4888-0.82287 0.52327-0.26192-0.0416-0.29777 0.10675-0.26795 0.31638-0.0144 0.12768 0.19297 0.0336 0.27743 0.0624h2.9504v-0.3398c-0.27819-0.0282-0.88796-0.0565-0.69604-0.49202 0.4672-1.0894 0.97746-2.1607 1.4869-3.2311 0.5077 1.0159 0.97526 2.0539 1.3792 3.1152 0.18643 0.38076-0.24997 0.58401-0.56584 0.58151-0.25623-0.0597-0.22839 0.1294-0.22019 0.30379-0.0144 0.12768 0.19297 0.0336 0.27743 0.0624h2.433"/><path d="m447.67 296.69c-0.21657 0.56166-0.64439 1.1116-1.2667 1.2284-0.43823 0.0975-0.98843-0.0295-1.1899-0.46946-0.16152-0.32606-0.037-0.73603 0.25686-0.94189 0.55121-0.42155 1.2671-0.5087 1.8658-0.84114 0.46712-0.23179 0.93682-0.61405 1.0056-1.1645 0.0957-0.57645-0.22047-1.1576-0.70805-1.4584-0.86644-0.54685-1.9695-0.6005-2.9423-0.3426-0.23301 0.0963-0.58301 0.11446-0.70095 0.36266-0.13747 0.46577-0.20398 0.95281-0.21812 1.4377 0.13707 0.0171 0.27413 0.0342 0.4112 0.0513 0.25096-0.72191 0.81284-1.4122 1.5968-1.559 0.4834-0.099 1.0955 0.0633 1.2932 0.5584 0.14736 0.3732-0.041 0.80422-0.37334 1.0078-0.54612 0.36794-1.2139 0.48834-1.7754 0.82954-0.45721 0.25085-0.89454 0.6703-0.92013 1.223-0.0528 0.62499 0.39417 1.1821 0.93519 1.4415 0.75106 0.37097 1.6353 0.37622 2.4384 0.19541 0.23755-0.0365 0.45939-0.122 0.46552-0.39883 0.0985-0.35253 0.17837-0.71081 0.23754-1.072"/><path d="m463.95 297.88c-0.46527-0.0245-0.97539-0.20088-1.1819-0.65469-0.67049-1.1058-1.1648-2.3054-1.7692-3.4468-0.67204-1.3276-1.377-2.6454-1.883-4.0482-0.30746-0.40733-0.93126-0.21967-1.2262 0.10718-0.4116 0.44141 0.24138 0.79963 0.59092 0.96021 0.58007 0.3953 0.92079 1.0347 1.2489 1.6346 0.16075 0.53335-0.23029 1.01-0.39918 1.4887-0.52328 1.1864-1.0213 2.3885-1.656 3.5211-0.18238 0.41558-0.85857 0.29311-1.012 0.54165-0.11177 0.29539 0.20368 0.23444 0.38266 0.23614h2.8106c0.22122-0.59604-0.66359-0.19824-0.66054-0.72477 0.0318-0.34888 0.27657-0.64261 0.382-0.97755 0.34631-0.7999 0.69263-1.5998 1.0389-2.3997 0.51383 1.0523 0.99695 2.1208 1.4095 3.2173 0.17791 0.57791-0.73272 0.38422-0.82703 0.64857-0.11177 0.29539 0.20368 0.23444 0.38266 0.23614h2.3688"/></g></g></g><g transform="translate(98,248)" width="33" height="33" fill="url(#gren)"><rect id="qrc" width="33" height="33" fill="url(#au)" stroke="url(#cq)" stroke-width=".1"/></g><path d="m132.13 285.94 0.0165 0.52817s3.998 3.7053 7.9392 3.2516c5.0177-0.57769 6.9983-3.7137 6.9983-3.7137z" fill="url(#cn)" fill-rule="evenodd"/><g><g transform="matrix(.059643 0 0 .075171 41.118 187)" fill="url(#k)" stroke="url(#j)" stroke-width=".74673"><path transform="matrix(4.4361 0 0 3.5197 -711.97 340.05)" d="m544.41 253.58-13.465 0.0215c-2.7809 5e-3 -4.056 2.1155-4.334 4.002l-0.084 12.871c-1e-3 0.19009 0.0311 0.3639 0.0566 0.54101-0.46887-0.47766-0.89804-1.015-1.2539-1.6406l0.14063-15.686c-2.6639 0.0549-5.9709 0.10911-8.6348 0.16406-0.96087 1.7218-2.416 3.2184-5.1074 2.7031l-0.0801 2.0469c2.0179-0.0895 3.0631-0.12369 3.8379 1.8438-0.0464 2.9844-0.0922 5.9687-0.13867 8.9531 0.26729 2.3977-4.5449 3.3984-4.5449 3.3984l0.0664 2s12.363 0.0548 18.545 0.082l8e-3 -0.0234 16.295 0.31445c1.4535-0.83696 2.3115-2.2266 2.6172-3.7129l-0.088-14.27c-0.36539-1.8148-1.6295-3.1657-3.8359-3.6094z" fill="url(#k)" stroke="url(#j)" stroke-width=".18898"/></g><path d="m140.8 280.69c0.23354 0.0544 0.19724 0.42628 0.19855 0.66593-3e-3 0.89483 5e-3 1.7901-4e-3 2.6846-0.0283 0.5096-0.49103 0.24542-0.39301-0.16426 3e-3 -0.96103-5e-3 -1.9226 4e-3 -2.8833 0.014-0.13415 0.0782-0.2985 0.19447-0.30303z" fill="url(#cp)" fill-rule="evenodd" stroke="url(#bg)" stroke-width=".05"/></g><g><path d="m131.81 286.18 0.3271 2e-3s3.3357 3.4684 6.6714 3.3926c3.3357-0.0758 5.5153-1.9332 5.4585-2.5397l0.70126 0.0948c0.22743 0.15162 0.0379 0.81497 0.0379 0.81497s0.2843-0.79602 0.6065-1.1372c0.3222-0.34116 1.1561-0.30325 1.3267-0.79603 0 0-0.3697-0.37493-0.0758-0.41696 0.52017-0.0744 0.75812 0.20848 0.70126 0.66335-0.0569 0.45487-0.81498 3.1083-5.1362 3.9233-4.3213 0.81498-7.7091-0.91896-10.668-3.5772" fill="url(#co)" fill-rule="evenodd" stroke="#000" stroke-width=".107"/><text id="code" x="28.235243" y="251.44171" dx="0" fill="url(#gren)" font-family="Arial" font-size="4.9px" letter-spacing=".8px" text-align="center" text-anchor="middle" style="line-height:125%" xml:space="preserve">231045654A</text><text id="note" x="28.413771" y="268.27277" fill="#00000a" font-family="'Times New Roman'" font-size="5.6444px" stroke-linecap="square" stroke-width=".1" text-align="center" text-anchor="middle" style="font-feature-settings:normal;font-variant-caps:normal;font-variant-ligatures:normal;font-variant-numeric:normal;line-height:50%" xml:space="preserve">NOTE</text></g></g><script xlink:href="qrcode.min.js"/><script xlink:href="makemoney.js"/></svg>
